<?xml version="1.0" encoding="utf-8"?>
<!-- Generator: Adobe Illustrator 22.0.1, SVG Export Plug-In . SVG Version: 6.00 Build 0)  -->
<!DOCTYPE svg PUBLIC "-//W3C//DTD SVG 1.1//EN" "http://www.w3.org/Graphics/SVG/1.1/DTD/svg11.dtd" [
	<!ENTITY st0 "display:none;">
	<!ENTITY st1 "display:inline;">
	<!ENTITY st2 "fill:#CFCFCF;">
	<!ENTITY st3 "opacity:0;">
	<!ENTITY st4 "fill:none;stroke:#333333;stroke-width:2;stroke-miterlimit:10;">
	<!ENTITY st5 "clip-path:url(#SVGID_2_);fill:none;stroke:#333333;stroke-width:2;stroke-miterlimit:10;">
	<!ENTITY st6 "fill:none;stroke:#FFFFFF;stroke-width:2;stroke-miterlimit:10;">
	<!ENTITY st7 "fill:none;stroke:#000000;stroke-width:2;stroke-miterlimit:10;">
	<!ENTITY st8 "fill:#FFFFFF;">
	<!ENTITY st9 "font-family:'GothamMedium';">
	<!ENTITY st10 "font-size:60px;">
	<!ENTITY st11 "letter-spacing:3;">
	<!ENTITY st12 "fill:none;">
	<!ENTITY st13 "font-size:63.8298px;">
	<!ENTITY st14 "letter-spacing:3.2;">
	<!ENTITY st15 "fill:none;stroke:#FFFFFF;stroke-miterlimit:10;">
	<!ENTITY st16 "opacity:0.7;">
	<!ENTITY st17 "opacity:0.3;">
	<!ENTITY st18 "fill:#474747;">
	<!ENTITY st19 "opacity:0.4;">
	<!ENTITY st20 "opacity:0.3;fill:none;">
	<!ENTITY st21 "fill:none;stroke:#474747;stroke-width:0.9167;stroke-linecap:round;stroke-linejoin:round;stroke-miterlimit:10;">
	<!ENTITY st22 "fill:none;stroke:#474747;stroke-width:1.8333;stroke-linecap:round;stroke-linejoin:round;stroke-miterlimit:10;">
	<!ENTITY st23 "fill:none;stroke:#333333;stroke-width:2;stroke-linecap:round;stroke-linejoin:round;stroke-miterlimit:10;">
	
		<!ENTITY st24 "clip-path:url(#SVGID_4_);fill:none;stroke:#333333;stroke-width:2;stroke-linecap:round;stroke-linejoin:round;stroke-miterlimit:10;">
	<!ENTITY st25 "fill:#040000;">
	<!ENTITY st26 "fill:none;stroke:#222222;stroke-width:2;stroke-miterlimit:10;">
	<!ENTITY st27 "fill:none;stroke:#222222;stroke-width:2;stroke-linecap:round;stroke-linejoin:round;stroke-miterlimit:10;">
	<!ENTITY st28 "fill:#333333;">
	<!ENTITY st29 "font-family:'HelveticaLT-Condensed-Bold';">
	<!ENTITY st30 "font-size:42px;">
	<!ENTITY st31 "display:none;fill:#333333;">
	<!ENTITY st32 "fill:none;stroke:#474747;stroke-width:1.1667;stroke-linecap:round;stroke-linejoin:round;stroke-miterlimit:10;">
	
		<!ENTITY st33 "clip-path:url(#SVGID_6_);fill:none;stroke:#333333;stroke-width:2;stroke-linecap:round;stroke-linejoin:round;stroke-miterlimit:10;">
	<!ENTITY st34 "fill:none;stroke:#FFFFFF;stroke-width:2;">
]>
<svg version="1.1" xmlns="http://www.w3.org/2000/svg" xmlns:xlink="http://www.w3.org/1999/xlink" x="0px" y="0px" width="1000px"
	 height="1000px" viewBox="0 0 1000 1000" style="enable-background:new 0 0 1000 1000;" xml:space="preserve">
<g id="图层_2" style="&st0;">
	<g style="&st1;">
		<rect style="&st2;" width="1000" height="1000"/>
	</g>
</g>
<g id="图层_1">
	<g>
		<path d="M455.1,4.2c-0.1,0.2-0.3,0.2-0.6,0.2c-0.7,0.5-1.8,1.1-2.7,1.5l0.5,0.5c-0.1,0.1-0.3,0.2-0.7,0.2c-0.8,0.4-2,0.9-3,1.3
			l0.4,0c0,0.2-0.2,0.4-0.5,0.4v1.1h3.5l1.1-1.4c0,0,1.2,1,1.9,1.6c0,0.2-0.2,0.3-0.5,0.3h-6v2.8c0,1.3-0.3,2.1-2.8,2.3
			c-0.1-0.6-0.2-1.1-0.5-1.4c-0.4-0.3-0.8-0.5-1.9-0.7v-0.2c0,0,2.4,0.1,2.8,0.1c0.3,0,0.4-0.1,0.4-0.3V9.9h-6.2l-0.1-0.4h6.4V7.8
			l1.4,0.1c0.5-0.5,1.1-1.2,1.5-1.7H443l-0.1-0.5h6.7l1.1-1l1.1,1c0.2-0.5,0.5-1.2,0.6-1.8h-9.8c0.1,1.2-0.3,2-0.9,2.4
			c-0.5,0.4-1.2,0.2-1.5-0.4c-0.2-0.6,0.1-1,0.6-1.2c0.6-0.4,1.2-1.4,1-2.5l0.2,0c0.2,0.5,0.4,0.9,0.4,1.3h6.9
			c0.6-1,1.2-2.5,1.6-3.6l2.5,0.9c-0.1,0.2-0.3,0.3-0.6,0.3c-0.7,0.7-1.8,1.7-2.8,2.4h2.5l1.1-1.1L455.1,4.2z M442.5,0.2
			c4.4,0.9,2.8,4.2,1.2,2.9c-0.1-1-0.7-2.1-1.3-2.8L442.5,0.2z M446.2,0c4.2,1.2,2.3,4.4,0.7,2.9c0-1-0.4-2.1-0.8-2.8L446.2,0z"/>
		<path d="M470.6,2.2c-0.1,0.1-0.4,0.3-0.7,0.3c-0.2,7-0.6,10.5-1.7,11.6c-0.6,0.7-1.4,1-2.5,1c0-0.7-0.1-1.1-0.4-1.4
			c-0.3-0.3-1-0.6-1.8-0.8l0-0.2c0.8,0.1,2,0.2,2.4,0.2c0.3,0,0.5-0.1,0.7-0.3c0.5-0.4,0.8-2.1,1-4.8c-2.1,1.2-5,2.6-9.1,4.3
			c-0.1,0.2-0.2,0.4-0.4,0.4l-1.2-2.2c1.8-0.4,6.2-1.6,10.7-3c0.1-1.4,0.2-3.2,0.3-5.1h-10.6l-0.1-0.4h10.6l1.1-1.1L470.6,2.2z
			 M458.3,3.6c7.1-0.3,7.4,3.8,5.1,3.6c-1.2-1.2-3.5-2.7-5.2-3.4L458.3,3.6z"/>
	</g>
	<g>
		<path d="M366.1,10.2c-0.6,0.7-1.7,2-3.1,3.4c-0.1,0.4-0.4,0.6-0.5,0.8l-1.3-2c0.7-0.4,0.8-0.5,0.8-0.9V4.9h-1.8L360,4.4h2l0.8-0.8
			l1.6,1.3c-0.1,0.1-0.3,0.2-0.7,0.3v6.1c0.7-0.4,1.5-0.8,2.3-1.2L366.1,10.2z M360.8,0.2c4.9,0.5,3.9,4,2,3.1c-0.4-1-1.4-2.2-2.2-3
			L360.8,0.2z M374.1,7.9c-0.1,0.2-0.3,0.2-0.7,0.3c-0.6,1.4-1.5,2.7-2.7,3.7c1.3,0.6,2.8,1,4.5,1.2l0,0.2c-0.9,0.2-1.4,0.8-1.7,1.8
			c-1.7-0.5-3.1-1.2-4.2-2.1c-1.5,1-3.4,1.7-5.7,2.1l-0.1-0.2c2-0.7,3.6-1.6,4.9-2.8c-0.9-1.1-1.6-2.5-2.1-4.3h-1.1l-0.1-0.4h6.1
			l1.1-1L374.1,7.9z M374.4,4.6c0.4,0.2,0.6,0.4,0.6,0.7c0,0.7-0.6,1.1-2.3,1.1h-0.9c-1.3,0-1.4-0.4-1.4-1.5V1.7h-2.2v0.8
			c0,1.4-0.4,3.7-3.8,4.9l-0.1-0.2c1.9-1.4,2.1-3.2,2.1-4.7v-2l2,0.7h1.8l0.9-1l1.6,1.3c-0.1,0.1-0.3,0.2-0.6,0.2v2.6
			c0,0.2,0,0.2,0.3,0.2h0.5h0.5c0.1,0,0.3,0,0.4,0c0.1,0,0.3,0,0.4-0.1L374.4,4.6L374.4,4.6z M366.6,7.8c0.6,1.5,1.5,2.5,2.7,3.3
			c0.9-1,1.5-2.1,2-3.3H366.6z"/>
		<path d="M380.2,11.5c0.8-0.3,1.7-0.7,2.6-1.1l0.1,0.2c-0.7,0.7-1.9,1.9-3.5,3.2c-0.1,0.3-0.3,0.5-0.5,0.7l-1.3-2
			c0.7-0.4,0.8-0.5,0.8-0.9V4.9h-2.2L376,4.5h2.4l0.8-0.8l1.6,1.3c-0.1,0.1-0.3,0.2-0.6,0.3V11.5z M377.6,0.2c4.9,0.6,3.7,4.1,1.9,3
			c-0.4-1-1.3-2.2-2-2.9L377.6,0.2z M389.3,4.6c0,0,1.2,0.9,1.9,1.6c0,0.2-0.2,0.3-0.5,0.3h-3.8v7.9c0,0.2-0.8,0.7-1.6,0.7h-0.4V6.4
			h-3.6L381.2,6h3.7V0.1l2.5,0.3c0,0.2-0.1,0.4-0.6,0.4V6h1.4L389.3,4.6z"/>
		<path d="M400.2,5.3c0.6,3,2.4,5.9,6.9,7.7l0,0.2c-1,0.2-1.6,0.8-1.7,1.9c-3.7-2.3-4.9-6.2-5.4-9.4c-0.5,3.8-2.1,7.1-7.9,9.4
			l-0.1-0.2c4.5-2.7,5.7-5.9,6.1-9.5h-5.8l-0.1-0.5h5.9c0.1-1.5,0.1-3.1,0.1-4.8l2.7,0.3c0,0.2-0.2,0.4-0.6,0.5c0,1.4,0,2.8-0.2,4
			h3.6l1.2-1.5c0,0,1.3,1,2.1,1.7c0,0.2-0.2,0.3-0.5,0.3H400.2z"/>
		<path d="M417.9,7.4c1.2,1,3.4,1.6,5.1,1.8v0.2c-0.7,0.2-1.1,0.8-1.2,1.6c-0.8-0.3-1.7-0.8-2.4-1.3v2.5c0,0.1-0.9,0.4-1.5,0.4h-0.3
			V9.2H413v3.2c0,0.1-0.8,0.5-1.5,0.5h-0.3V9.9c-1,0.6-2.1,1-3.2,1.3l-0.1-0.2c1.6-0.9,3.1-2.2,3.8-3.6h-3.1L408.5,7h3.9V5.8h-1.8
			l-0.1-0.5h2V4.2h-2.1l-0.1-0.4h2.2V2.5l2.2,0.2c0,0.2-0.1,0.3-0.4,0.4v0.7h2.2V2.5l2.3,0.2c0,0.2-0.1,0.3-0.4,0.4v0.6h0.6l0.8-0.9
			c0,0,0.6,0.4,1.1,0.8c0.1-0.4,0.1-0.9,0.1-1.3h-10.7c0.1,1-0.2,1.7-0.7,2c-0.5,0.3-1.2,0.1-1.3-0.4c-0.2-0.5,0.2-0.9,0.6-1.1
			c0.5-0.3,0.9-0.9,0.8-1.6l0.2,0c0.1,0.3,0.2,0.5,0.3,0.8h5.1c-0.1,0-0.2-0.1-0.3-0.1c-0.1-0.6-0.6-1.3-0.9-1.7L414,0
			c3-0.1,2.8,1.5,1.9,1.9h4.8l0.9-0.9l1.6,1.5c-0.1,0.1-0.3,0.2-0.6,0.2c-0.4,0.4-1.1,0.9-1.6,1.2l0.1,0.1c0,0.2-0.2,0.3-0.4,0.3
			h-2.4v1.2h0.5l0.7-0.8c0,0,0.8,0.6,1.3,1c0,0.2-0.2,0.3-0.4,0.3h-2.1V7h1.7l0.8-1c0,0,1,0.7,1.6,1.2c0,0.2-0.2,0.3-0.4,0.3H417.9z
			 M416.9,10.2c0,0.2-0.2,0.4-0.6,0.3c-0.1,0.7-0.3,1.3-0.7,1.8c8.9,0.4,5.9,3.7,4.2,2.5c-0.8-0.7-2.3-1.6-4.4-2.2
			c-0.9,1-2.6,1.9-6.6,2.4l-0.1-0.3c5.2-1.3,5.7-2.8,5.8-5.1L416.9,10.2z M418,8.2c-0.2-0.2-0.4-0.5-0.5-0.8h-3.4
			c-0.3,0.4-0.8,0.9-1.2,1.2l0.2,0.1h4.5L418,8.2z M414.2,5.3h2.2V4.2h-2.2V5.3z M414.2,7h2.2V5.8h-2.2V7z"/>
	</g>
	<g>
		<path d="M213.4,7.4c-0.1,0.2-0.3,0.2-0.7,0.3c-0.7,1.5-1.6,2.8-2.8,3.8c1.3,0.6,3,1.2,5.2,1.6l0,0.2c-1,0.2-1.6,0.7-1.8,1.7
			c-2-0.7-3.6-1.5-4.7-2.4c-1.8,1.2-4.1,2-7,2.5l-0.1-0.2c2.5-0.7,4.5-1.8,6.1-3.2c-1-1-1.5-2.2-1.9-3.3c-1.2,2.3-2.9,4.4-5.6,5.8
			L200,14c2.8-2.4,4.3-5.7,5.1-9.1h-1.8l-0.7,0.8l-1.8-1.2c0.1-0.1,0.4-0.3,0.6-0.4c0.4-1.1,0.9-2.8,1.1-3.6l2.4,0.7
			c-0.1,0.2-0.2,0.4-0.7,0.3c-0.2,0.8-0.6,2-0.9,2.8h1.9c0.3-1.5,0.5-3,0.6-4.5l2.7,0.4c0,0.3-0.2,0.4-0.6,0.4
			c-0.2,1.2-0.4,2.4-0.7,3.6h4.9l1.1-1.4c0,0,1.2,0.9,1.9,1.6c0,0.2-0.2,0.3-0.4,0.3h-7.6c-0.2,0.6-0.4,1.2-0.6,1.9h4.1l1.1-1
			L213.4,7.4z M206.3,7.3c-0.1,0.2-0.2,0.4-0.3,0.6c0.5,1,1.3,2,2.6,2.8c0.9-1,1.6-2.2,2.1-3.5H206.3z M209.4,0.5
			c4.6,0.9,3,4.2,1.3,2.9c-0.2-1-0.8-2.1-1.4-2.8L209.4,0.5z"/>
		<path d="M222.1,10.2c-1,0.7-2.6,1.8-4.9,3.2c0,0.2-0.2,0.4-0.4,0.5l-1-2.1c0.4-0.1,1.2-0.3,2.1-0.5V6.7h-1.7l-0.1-0.4h1.8V2.1
			h-1.9L216,1.6h3.7l0.9-1.2c0,0,1,0.9,1.6,1.5c0,0.2-0.2,0.3-0.4,0.3h-2.1v4.2h0.4l0.7-1.2c0,0,0.8,0.8,1.2,1.3
			c0,0.2-0.2,0.3-0.4,0.3h-1.9v4c0.8-0.2,1.5-0.4,2.3-0.6L222.1,10.2z M230.7,13c0.4,0.2,0.5,0.4,0.5,0.7c0,0.6-0.6,1-2.5,1h-1.1
			c-1.3,0-1.5-0.3-1.5-1.4v-2.6c-0.9,1.9-2.7,3.3-6.4,4.4l-0.1-0.3c6.1-2.6,5.7-6.2,5.8-11.9l2.4,0.2c0,0.2-0.2,0.4-0.6,0.4
			c0,1.8,0,3.5-0.3,4.9l1.3,0.1c0,0.2-0.2,0.3-0.5,0.4v4c0,0.2,0,0.3,0.4,0.3h0.8h0.7c0.2,0,0.2,0,0.3-0.2c0.1-0.3,0.4-1.1,0.6-2.1
			h0.2L230.7,13z M224.2,9.5c0,0.1-0.5,0.5-1.4,0.5h-0.3V0.5l1.9,0.7h3.9l0.9-1l1.6,1.3c-0.1,0.1-0.3,0.2-0.7,0.3v7.5
			c0,0.1-0.6,0.5-1.5,0.5h-0.3V1.7h-4.2V9.5z"/>
	</g>
	<g>
		<path d="M132.9,2c0,0,1.3,0.9,2,1.6c0,0.2-0.2,0.3-0.5,0.3l-5.9,0c-0.6,0.7-1.3,1.4-1.9,1.9l3.7,0l0.9-1l1.9,1.4
			c-0.1,0.1-0.3,0.3-0.7,0.3l0.1,8.1c0,0.1-1,0.5-1.6,0.5l-0.3,0l0-1.1l-6,0l0,0.5c0,0.2-0.8,0.7-1.6,0.7l-0.3,0L122.5,5l2.1,0.8
			l1.4,0c0-0.5,0.1-1.3,0.1-1.9l-6,0L120,3.5l8.5-0.1c0.4-0.9,0.8-2.2,1-3.1l2.6,0.6c-0.1,0.2-0.2,0.3-0.6,0.3
			c-0.6,0.7-1.6,1.5-2.5,2.2l2.8,0L132.9,2z M123.4,0.4c4.5,0.7,2.9,4,1.2,2.8c-0.2-0.9-0.8-2-1.3-2.7L123.4,0.4z M124.5,6.2l0,2.1
			l6,0l0-2.1L124.5,6.2z M124.5,10.9l6,0l0-2.1l-6,0L124.5,10.9z M130.6,13.6l0-2.2l-6,0l0,2.2L130.6,13.6z"/>
		<path d="M145,5.9c0,0.2-0.2,0.4-0.5,0.4c0,1.9,0,3.6-0.6,4.9c7.5,0.3,7.5,4.2,5.3,3.9c-1.3-1.2-3.7-2.7-5.4-3.6
			c-0.9,1.7-2.9,2.9-7.5,3.7l-0.1-0.2c6.8-1.9,6.4-4.6,6.4-9.3L145,5.9z M148.9,0c0,0,1.2,0.9,2,1.6c0,0.2-0.2,0.3-0.4,0.3l-6.3,0
			c-0.5,0.9-1.2,1.8-1.8,2.4l4.1,0l0.9-1l1.8,1.3c-0.1,0.1-0.3,0.2-0.6,0.3l0,5.8c0,0.1-1,0.5-1.6,0.5l-0.3,0l0-6.5l-6.3,0l0,6.3
			c0,0.2-0.8,0.6-1.7,0.7l-0.3,0l-0.1-8.3l2.1,0.8l1.4,0c0-0.7,0.1-1.6,0.1-2.4l-5.5,0l-0.1-0.5l11.6-0.1L148.9,0z"/>
	</g>
	<g>
		<g style="&st3;">
			<rect x="600" width="24" height="24"/>
		</g>
		<g>
			<circle style="&st4;" cx="613" cy="11" r="8"/>
			<g>
				<defs>
					<path id="SVGID_1_" d="M603.7,14.7c-1.9,0.6-3.2,2.3-3.2,4.3c0,2.5,2,4.5,4.5,4.5c2,0,3.8-1.4,4.3-3.2
						C606.8,19.3,604.7,17.2,603.7,14.7z"/>
				</defs>
				<clipPath id="SVGID_2_">
					<use xlink:href="#SVGID_1_"  style="overflow:visible;"/>
				</clipPath>
				<line style="&st5;" x1="603" y1="21" x2="607.5" y2="16.5"/>
			</g>
		</g>
	</g>
	<g>
		<g style="&st3;">
			<rect x="420" y="340" width="24" height="24"/>
		</g>
		<g>
			<g>
				<circle style="&st6;" cx="432" cy="352" r="3"/>
			</g>
			<g>
				<ellipse style="&st6;" cx="432" cy="352" rx="9.5" ry="8"/>
			</g>
		</g>
	</g>
	<g>
		<g style="&st3;">
			<rect x="360" y="340" width="24" height="24"/>
		</g>
		<path style="&st6;" d="M379.2,352.5c1.9-1.9,1.9-4.9,0-6.8s-4.9-1.9-6.8,0c-0.2,0.2-0.3,0.3-0.4,0.5c-0.1-0.2-0.3-0.4-0.4-0.5
			c-1.9-1.9-4.9-1.9-6.8,0s-1.9,4.9,0,6.8l7.3,7.3L379.2,352.5z"/>
	</g>
	<g>
		<g>
			<path d="M7.8,74.9c0,0.1-0.6,0.5-1.5,0.5H5.9v-2.6c-1.1,0.4-2.5,0.8-4.4,1.4c-0.1,0.2-0.3,0.3-0.4,0.4l-0.9-2
				c0.4,0,0.9,0,1.5-0.1v-5.5H0.1L0,66.5h12.2l1-1.4c0,0,1.2,1,1.8,1.6c0,0.2-0.2,0.3-0.5,0.3H7.8V74.9z M4.2,65.5
				c0,0.2-0.8,0.6-1.6,0.6H2.3v-5.8l2,0.8h6.4l0.9-1l1.9,1.4c-0.1,0.1-0.3,0.3-0.7,0.3v3.5c0,0.1-1,0.4-1.6,0.4h-0.3v-4.3H4.2V65.5z
				 M3.6,66.9v1.4h2.4v-1.4H3.6z M3.6,70.3h2.4v-1.5H3.6V70.3z M3.6,72.2c0.7,0,1.5-0.1,2.4-0.2v-1.3H3.6V72.2z M9.3,62.1
				c0,0,0.7,0.5,1.2,1c0,0.2-0.2,0.3-0.4,0.3H4.9l-0.1-0.5h3.9L9.3,62.1z M9.3,63.8c0,0,0.7,0.5,1.2,1c0,0.2-0.2,0.3-0.4,0.3H4.9
				l-0.1-0.5h3.8L9.3,63.8z M14.6,68.8C14.5,69,14.4,69,14,69.1c-0.4,1.2-1,2.3-1.8,3.3c1,0.5,2.1,0.8,3.2,1.1v0.2
				c-0.8,0.2-1.3,0.8-1.6,1.7c-1.1-0.5-2.1-1.1-2.9-1.8c-0.9,0.7-1.9,1.3-3.2,1.7l-0.1-0.2c1-0.7,1.9-1.5,2.5-2.5
				c-0.7-1-1.2-2.2-1.5-3.8H8l-0.1-0.5h4l1.1-1L14.6,68.8z M9,68.8c0.4,1.2,1.1,2.1,1.9,2.7c0.5-0.9,0.8-1.8,1-2.7H9z"/>
			<path d="M29.7,64.4c0,0,1.2,1,1.9,1.6c0,0.2-0.2,0.3-0.4,0.3h-1.4v8.5c0,0.1-0.6,0.5-1.5,0.5h-0.3v-9h-1.6v0.6
				c0,2.9-0.3,6.3-3.9,8.4l-0.2-0.2c2-2.3,2.2-5.3,2.2-8.3v-0.5c-0.1,0.1-0.2,0.1-0.4,0.1H21v1.9h0.8l0.8-1.2c0,0,0.9,0.8,1.5,1.4
				c0,0.2-0.2,0.3-0.4,0.3H21v6c0,0.1-0.6,0.4-1.5,0.4h-0.3v-4.7h0c-0.6,1.2-1.5,2.6-2.8,3.6L16.2,74c0.8-1.3,1.3-3.3,1.4-4.6
				l1.6,0.7v-1.2h-2.6l-0.1-0.5h2.8v-1.9h-2.9L16.1,66h4.4c0.3-0.9,0.6-2.1,0.7-3.1h-3.5c3.3,1.5,1.6,4,0.4,2.7
				c0-0.9-0.3-1.9-0.7-2.7l0.1,0h-1.1l-0.1-0.5h3.4c-0.1,0-0.3-0.1-0.4-0.2c0-0.8-0.5-1.6-0.9-2.2l0.1-0.1c2.9,0.4,2.8,2.1,1.9,2.5
				h1l0.8-1.2c0,0,1,0.8,1.6,1.4c0,0.2-0.2,0.3-0.4,0.3h-2.1l2,0.6c-0.1,0.2-0.3,0.3-0.6,0.3c-0.5,0.6-1.2,1.5-1.9,2.2h1.1l0.9-1.2
				c0,0,0.9,0.8,1.5,1.3v-4.8l1.9,0.6c1.1-0.6,2.3-1.4,2.9-1.9l2,1.6c-0.2,0.2-0.5,0.2-1,0c-1,0.3-2.5,0.7-4,0.8v3.3h2.4L29.7,64.4z
				 M21.3,69.6c3.6,1.5,2,4.3,0.7,3.1c0-1-0.4-2.2-0.9-3L21.3,69.6z"/>
			<path d="M37.3,68.1c4,2.5,2.1,5.9,0.6,4.3c0-0.3,0-0.6,0-0.9c-1.1,0.5-2.4,1.1-4,1.7c-0.1,0.2-0.3,0.3-0.4,0.4l-1-2.4
				c0,0,0.5-0.1,0.6-0.2c0.7-0.9,1.7-3.4,2-4.9h-2.5l-0.1-0.5h5.4l1-1.3c0,0,1.1,0.9,1.8,1.5c0,0.2-0.2,0.3-0.4,0.3h-4.8l2.3,0.7
				c-0.1,0.2-0.2,0.3-0.6,0.3c-0.8,1.3-2.2,3.1-3.4,4.2c1-0.1,2.5-0.2,4.1-0.4c-0.1-0.9-0.4-1.9-0.7-2.7L37.3,68.1z M33.2,62.5
				L33,62h3.9l1-1.3c0,0,1.1,0.9,1.8,1.5c0,0.2-0.2,0.3-0.5,0.3H33.2z M47.8,64.5c-0.1,0.1-0.3,0.2-0.7,0.3
				c-0.1,6.4-0.4,8.7-1.3,9.6c-0.5,0.6-1.2,0.8-2.1,0.8c0-0.6,0-1-0.2-1.3c-0.2-0.3-0.7-0.5-1.3-0.6l0-0.2c0.5,0,1.3,0.1,1.7,0.1
				c0.3,0,0.4,0,0.6-0.2c0.6-0.5,0.7-3.1,0.9-8.5h-2c-0.1,4.8-0.9,8.4-5.7,10.8l-0.2-0.2c3.4-2.7,3.9-6.1,4-10.6h-2l-0.1-0.5h2.2
				c0-1.3,0-2.6,0-4l2.5,0.2c0,0.2-0.2,0.4-0.6,0.5c0,1.1,0,2.2,0,3.3h1.8l1-1L47.8,64.5z"/>
			<path d="M57.5,63.3c1.3,2.2,3.9,3.4,6.5,4l0,0.2c-0.7,0.2-1.3,0.7-1.5,1.7c-2.5-1.2-4.4-3-5.3-5.9h-0.5c-0.3,0.9-0.8,1.7-1.4,2.4
				c3.9,0.5,2.9,3.5,1.2,2.6c-0.3-0.7-0.9-1.6-1.6-2.2c-1.3,1.4-3.2,2.5-6.2,3.2l-0.1-0.2c3.5-1.4,5.2-3.5,6-5.8h-5.4l-0.1-0.5h5.7
				c0.3-0.9,0.4-1.9,0.5-2.9l2.7,0.4c0,0.3-0.2,0.4-0.6,0.4c-0.1,0.7-0.3,1.4-0.5,2h4.3l1-1.3c0,0,1.1,0.9,1.8,1.5
				c0,0.2-0.2,0.3-0.5,0.3H57.5z M51.2,69.6c0.8,2.1,0.1,3.6-0.8,4.1c-0.6,0.4-1.3,0.3-1.5-0.3c-0.2-0.5,0.1-1,0.6-1.3
				c0.7-0.4,1.5-1.4,1.5-2.6H51.2z M60.4,73c0.6,0.2,0.7,0.4,0.7,0.7c0,0.8-0.8,1.1-4,1.1H55c-1.9,0-2.3-0.3-2.3-1.6v-3.9l2.4,0.2
				c0,0.2-0.2,0.4-0.5,0.4v2.9c0,0.2,0.1,0.3,0.7,0.3h2c0.7,0,1.3,0,1.6,0c0.3,0,0.4-0.1,0.5-0.2c0.2-0.3,0.5-0.9,0.8-1.9h0.2
				L60.4,73z M55.6,68.7c4.4,1,2.8,4.3,1.2,3c-0.1-1-0.7-2.1-1.3-2.9L55.6,68.7z M60.5,69.7c5.1,1.3,3.5,5.2,1.6,3.7
				c-0.1-1.3-0.9-2.7-1.8-3.6L60.5,69.7z"/>
		</g>
	</g>
	<g>
		<path d="M146.5,64.9c-0.6,0.4-1.3,0.8-2.1,1.3v3.2c0,1.2-0.3,1.8-2.2,2c0-0.5-0.1-0.9-0.3-1.1c-0.2-0.2-0.5-0.4-1.1-0.5v-0.2
			c0,0,1.3,0.1,1.5,0.1c0.2,0,0.3-0.1,0.3-0.2v-2.1c-0.4,0.2-0.8,0.4-1.2,0.7c0,0.2-0.2,0.4-0.4,0.4l-1-1.8c0.6-0.1,1.5-0.4,2.6-0.7
			v-2.2h-2.1l-0.1-0.5h2.3v-2.9l2.3,0.2c0,0.2-0.2,0.4-0.6,0.4v2.3h0.1l0.8-1.2c0,0,0.9,0.8,1.5,1.4c0,0.2-0.2,0.3-0.4,0.3h-2v1.7
			c0.6-0.2,1.3-0.4,2-0.6L146.5,64.9z M143,71.5c0.6,2-0.2,3.4-1.2,3.8c-0.6,0.3-1.4,0.1-1.6-0.5c-0.2-0.6,0.2-1,0.7-1.3
			c0.8-0.2,1.7-1,1.8-2H143z M154.9,69.1c0.4,0.4,0.5,0.7,0.4,1.1c-0.2,0.7-0.8,0.8-1.6,0.6c-2.2-0.7-2.4-3.8-2.4-7.4H150
			c-0.1,1.2-0.2,2.2-0.6,3.2c2.6,1.5,1.8,3.5,0.3,2.9c-0.3-0.4-0.6-0.9-1.1-1.4c-0.8,1.1-2,2.1-3.9,2.9l-0.2-0.2
			c1.6-1.1,2.5-2.3,3-3.8c-0.6-0.5-1.1-1-1.6-1.3l0.1-0.1c0.7,0.1,1.2,0.2,1.8,0.4c0.2-0.8,0.2-1.6,0.3-2.5h-1.2l-0.1-0.5h1.4
			c0-0.9,0-1.8,0-2.8l2.5,0.2c0,0.2-0.2,0.4-0.6,0.4c0,0.7,0,1.4-0.1,2.1h1.2l0.9-0.9l1.7,1.3c-0.1,0.1-0.3,0.2-0.6,0.2
			c-0.1,2,0,4.8,0.9,5.2c0.2,0.1,0.2,0,0.3-0.2c0.2-0.4,0.3-0.9,0.4-1.4l0.2,0L154.9,69.1z M145,71.4c3.8,2,1.8,5,0.4,3.4
			c0.1-1.1-0.2-2.4-0.5-3.3L145,71.4z M148.2,71.3c4.5,1.5,2.8,5.1,1.1,3.6c0-1.2-0.6-2.5-1.3-3.5L148.2,71.3z M151.7,71.1
			c5.1,1.5,3.6,5.3,1.7,3.9c-0.2-1.3-1.1-2.8-1.9-3.8L151.7,71.1z"/>
		<path d="M157.4,62.2l2.6,0.2c0,0.3-0.2,0.5-0.7,0.5v11.8c0,0.2-0.8,0.6-1.6,0.6h-0.3V62.2z M158.9,60c5.1,0.6,3.8,4.3,1.9,3.2
			c-0.3-1.1-1.3-2.3-2.1-3.1L158.9,60z M171.1,62.1c-0.1,0.1-0.3,0.3-0.7,0.3v10.7c0,1.3-0.3,2-2.6,2.3c0-0.6-0.2-1.1-0.5-1.3
			c-0.3-0.3-0.7-0.5-1.7-0.7v-0.2c0,0,2.1,0.1,2.5,0.1c0.3,0,0.4-0.1,0.4-0.4V62.1h-5.3l-0.1-0.5h5.3l0.9-1L171.1,62.1z"/>
		<path d="M185.1,64.3c-0.6,2.7-1.7,5-3.5,6.8c1.8,1.2,4,1.9,6.3,2.4l0,0.2c-1,0.1-1.7,0.7-2,1.7c-2.2-0.7-4.1-1.7-5.6-3.1
			c-1.9,1.4-4.4,2.5-7.6,3.1l-0.1-0.2c2.9-1,5.1-2.3,6.7-3.9c-1.5-1.7-2.6-4-3.2-7h-3.3l-0.1-0.5h11.8l1.2-1.5c0,0,1.3,1,2,1.7
			c0,0.2-0.2,0.3-0.5,0.3H185.1z M176.4,64.3c0.7,2.5,2.1,4.5,3.8,5.9c1.3-1.7,2.1-3.7,2.5-5.9H176.4z M178.4,60.2
			c5.1,0.6,3.6,4.4,1.6,3.1c-0.2-1.1-1-2.2-1.8-3L178.4,60.2z"/>
		<path d="M202.2,63.5c0,0,1.2,0.9,1.8,1.5c0,0.2-0.2,0.3-0.5,0.3H189l-0.1-0.5h4.9c-0.1,0-0.3-0.1-0.4-0.3c0-0.7-0.3-1.4-0.6-1.9
			l0.1-0.1c2.7,0.4,2.5,1.9,1.7,2.3h2.9c0.3-0.7,0.6-1.6,0.7-2.3h-8.3l-0.1-0.5h10.5l1-1.3c0,0,1.2,0.9,1.8,1.5
			c0,0.2-0.2,0.3-0.5,0.3h-4.2l2.1,0.6c-0.1,0.2-0.2,0.3-0.6,0.3c-0.5,0.4-1.2,1-1.9,1.4h3.1L202.2,63.5z M201.9,70.9
			c0,0,1.2,0.9,1.9,1.5c0,0.2-0.2,0.3-0.5,0.3h-6V75c0,0.1-0.6,0.4-1.6,0.4h-0.4v-2.7h-6.2l-0.1-0.5h6.4v-1.7h-2.1V71
			c0,0.2-0.8,0.6-1.6,0.6h-0.3v-6l2,0.8h5.9l0.9-0.9l1.8,1.4c-0.1,0.1-0.3,0.2-0.6,0.3v3.7c0,0.1-1,0.5-1.6,0.5h-0.3v-0.7h-2.1v1.7
			h3.5L201.9,70.9z M193.2,66.8v1.4h6.2v-1.4H193.2z M193.2,70.1h6.2v-1.4h-6.2V70.1z M195,60c3.9,0,2.2,2.9,0.7,1.8
			c-0.1-0.6-0.5-1.3-0.8-1.7L195,60z"/>
	</g>
	<g>
		<g style="&st3;">
			<rect x="360" y="380" width="24" height="24"/>
		</g>
		<path style="&st7;" d="M379.2,392.5c1.9-1.9,1.9-4.9,0-6.8s-4.9-1.9-6.8,0c-0.2,0.2-0.3,0.3-0.4,0.5c-0.1-0.2-0.3-0.4-0.4-0.5
			c-1.9-1.9-4.9-1.9-6.8,0s-1.9,4.9,0,6.8l7.3,7.3L379.2,392.5z"/>
	</g>
	<g>
		<g style="&st3;">
			<rect x="420" y="380" width="24" height="24"/>
		</g>
		<g>
			<g>
				<circle style="&st7;" cx="432" cy="392" r="3"/>
			</g>
			<g>
				<ellipse style="&st7;" cx="432" cy="392" rx="9.5" ry="8"/>
			</g>
		</g>
	</g>
	<g>
		<g style="&st3;">
			<rect x="480" y="380" width="24" height="24"/>
		</g>
		<polygon style="&st7;" points="483,384 483,398 487,398 487,400.5 491,398 501,398 501,384 		"/>
	</g>
	<g>
		<text transform="matrix(1 0 0 1 52.6004 240.3999)" style="&st8; &st9; &st10; &st11;">UR</text>
		<rect y="120" style="&st12;" width="200" height="200"/>
		<rect id="ID" x="240" y="120" style="&st12;" width="200" height="200"/>
		<text transform="matrix(1 0 0 1 304.0301 240.3999)" style="&st8; &st9; &st10; &st11;">ID</text>
		<rect x="480" y="120" style="&st12;" width="200" height="200"/>
		<text transform="matrix(0.94 0 0 1 531.04 241.7021)" style="&st8; &st9; &st13; &st14;">VD</text>
		<rect x="720" y="120" style="&st12;" width="200" height="200"/>
		<text transform="matrix(1 0 0 1 784.7811 240.3999)" style="&st8; &st9; &st10; &st11;">UI</text>
	</g>
	<g>
		<g>
			<path d="M293.9,72.1c0,0,1.1,0.9,1.7,1.5c0,0.2-0.2,0.3-0.4,0.3h-6.9v0.8c0,0.1-0.5,0.5-1.4,0.5h-0.3v-9c-0.4,0.5-0.9,1-1.4,1.4
				l-0.2-0.1c0.2-0.3,0.4-0.7,0.6-1.1c-0.4,0.4-0.9,0.8-1.6,1.3v5.2c0,1.3-0.3,2.1-2.3,2.3c0-0.7-0.1-1.1-0.4-1.5
				c-0.2-0.3-0.6-0.5-1.3-0.7v-0.2c0,0,1.5,0.1,1.9,0.1c0.2,0,0.3-0.1,0.3-0.3v-3.6c-0.3,0.2-0.6,0.4-0.9,0.6c0,0.2-0.2,0.4-0.4,0.5
				l-0.9-2.1c0.4-0.1,1.2-0.4,2.1-0.7v-3h-1.9l-0.1-0.5h2v-3.8l2.4,0.2c0,0.2-0.2,0.4-0.6,0.5v3.1h0.1l0.8-1.2c0,0,0.9,0.8,1.4,1.4
				c0,0.2-0.2,0.3-0.4,0.3H284v2.4c0.5-0.2,1.1-0.4,1.7-0.6l0,0.1c0.9-2,1.5-4.3,1.8-6l2.6,0.7c-0.1,0.2-0.2,0.3-0.6,0.3
				c-0.2,0.7-0.6,1.4-1,2.2l0.1,0h4.2l0.9-1.3c0,0,1.1,0.9,1.7,1.5c0,0.2-0.2,0.3-0.5,0.3h-3v2.8h0.5l0.9-1.2c0,0,1,0.9,1.6,1.5
				c0,0.2-0.2,0.3-0.5,0.3h-2.5V70h0.5l0.9-1.2c0,0,1,0.9,1.6,1.4c0,0.2-0.2,0.3-0.5,0.3h-2.5v3h1L293.9,72.1z M288.3,63.9v2.8h1.9
				v-2.8H288.3z M290.2,67.1h-1.9V70h1.9V67.1z M288.3,73.4h1.9v-3h-1.9V73.4z M289.8,60c4.2,1.1,2.1,4.2,0.6,2.8
				c0-0.9-0.3-2-0.8-2.7L289.8,60z"/>
			<path d="M299.3,62.4h-2.9l-0.1-0.5h3l-0.2-1.8l2.4,0.2c0,0.2-0.1,0.4-0.5,0.4l0.2,1.2h0.6l0.9-1.2c0,0,1,0.8,1.5,1.4
				c0,0.2-0.2,0.3-0.4,0.3h-2.6l0.2,1.2c-0.3,0.3-1,0.5-1.8,0.5L299.3,62.4z M301.5,68.4c-0.1,0.1-0.2,0.3-0.5,0.3v6.1
				c0,0.1-0.8,0.4-1.5,0.4h-0.3v-5.3c-0.7,0.6-1.5,1-2.3,1.5l-0.2-0.2c1.5-1.3,3-3.3,4.2-5.6H297l-0.1-0.5h4.2
				c0.3-0.7,0.6-1.4,0.8-2.2l2.4,1c-0.1,0.2-0.3,0.3-0.7,0.3c-0.1,0.3-0.3,0.6-0.5,0.9h5l1-1.3c0,0,1.2,0.9,1.8,1.5
				c0,0.2-0.2,0.3-0.5,0.3h-7.6c-0.6,1-1.2,1.8-1.9,2.6L301.5,68.4z M309.3,69.1c0,0,1.1,0.8,1.7,1.4c0,0.2-0.2,0.3-0.5,0.3h-3.8
				v2.4c0,1.2-0.3,1.9-2.4,2.1c0-0.5-0.1-0.9-0.4-1.2c-0.2-0.2-0.6-0.4-1.3-0.6v-0.2c0,0,1.6,0.1,1.9,0.1c0.2,0,0.3-0.1,0.3-0.3
				v-2.4h-3.4l-0.1-0.5h3.5v-1.7l1.4,0.1c0.4-0.4,0.8-0.9,1.1-1.3h-4.9l-0.1-0.4h5.1l0.9-0.9l1.6,1.4c-0.1,0.1-0.3,0.2-0.7,0.2
				c-0.6,0.4-1.4,0.8-2.2,1.1h0.1c0,0.2-0.2,0.3-0.5,0.4v1.1h1.6L309.3,69.1z M310,60.7c0,0,1,0.8,1.6,1.4c0,0.2-0.2,0.3-0.4,0.3
				H308l-0.2,1.3c-0.3,0.3-1.1,0.4-1.9,0.2l0.2-1.5h-1.7l-0.1-0.5h1.9l0.3-1.8l2.3,0.4c0,0.2-0.2,0.4-0.6,0.4l-0.2,1h1L310,60.7z"/>
			<path d="M318.7,70.3c-0.6,0.7-1.7,2-3.1,3.4c-0.1,0.4-0.4,0.6-0.5,0.8l-1.3-2c0.7-0.4,0.8-0.5,0.8-0.9v-6.7h-1.8l-0.1-0.5h2
				l0.8-0.8l1.6,1.3c-0.1,0.1-0.3,0.2-0.7,0.3v6.2c0.7-0.4,1.5-0.8,2.3-1.2L318.7,70.3z M313.3,60.2c4.9,0.5,3.9,4.1,2,3.1
				c-0.4-1-1.4-2.2-2.2-3L313.3,60.2z M326.7,68c-0.1,0.2-0.3,0.2-0.7,0.3c-0.6,1.5-1.5,2.7-2.7,3.8c1.3,0.6,2.9,1,4.5,1.2l0,0.2
				c-0.9,0.2-1.4,0.8-1.7,1.8c-1.7-0.5-3.1-1.2-4.2-2.1c-1.5,1-3.4,1.7-5.7,2.1l-0.1-0.2c2-0.7,3.6-1.6,5-2.8
				c-0.9-1.1-1.6-2.5-2.1-4.3h-1.1l-0.1-0.5h6.1l1.1-1L326.7,68z M327.1,64.6c0.4,0.2,0.6,0.4,0.6,0.7c0,0.7-0.6,1.1-2.3,1.1h-0.9
				c-1.3,0-1.5-0.4-1.5-1.5v-3.2h-2.2v0.8c0,1.4-0.4,3.7-3.8,4.9l-0.1-0.2c1.9-1.4,2.1-3.3,2.1-4.7v-2.1l2.1,0.7h1.8l0.9-1l1.6,1.3
				c-0.1,0.1-0.3,0.2-0.6,0.2v2.6c0,0.2,0,0.2,0.3,0.2h0.5h0.5c0.1,0,0.3,0,0.4,0c0.1,0,0.3,0,0.4-0.1L327.1,64.6L327.1,64.6z
				 M319.2,67.9c0.6,1.5,1.5,2.6,2.7,3.4c0.9-1,1.5-2.1,2-3.4H319.2z"/>
			<path d="M332.9,71.6c0.8-0.3,1.7-0.7,2.6-1.1l0.1,0.2c-0.7,0.7-1.9,1.9-3.5,3.3c-0.1,0.3-0.3,0.5-0.5,0.7l-1.3-2
				c0.7-0.4,0.8-0.5,0.8-0.9V65h-2.3l-0.1-0.5h2.4l0.9-0.9l1.6,1.3c-0.1,0.1-0.3,0.2-0.6,0.3V71.6z M330.2,60.2
				c4.9,0.6,3.7,4.1,1.9,3.1c-0.4-1-1.3-2.2-2-3L330.2,60.2z M342,64.6c0,0,1.2,0.9,1.9,1.6c0,0.2-0.2,0.3-0.5,0.3h-3.8v8
				c0,0.2-0.8,0.7-1.6,0.7h-0.4v-8.7h-3.6L334,66h3.7v-5.9l2.5,0.3c0,0.2-0.1,0.4-0.6,0.5V66h1.4L342,64.6z"/>
			<path d="M347,71c0,0.1-0.7,0.5-1.3,0.5h-0.3v-9.3l2.1,0.2c0,0.2-0.1,0.4-0.5,0.4V71z M348,60.1l2.3,0.2c0,0.2-0.2,0.4-0.6,0.5
				v6.3c0,3.4-0.9,6.3-4.1,8.1l-0.2-0.2c2-2.1,2.5-4.8,2.5-7.9V60.1z M355.9,62v2.5h1.3l0.8-0.9l1.7,1.3c-0.1,0.1-0.3,0.2-0.6,0.3
				V71c0,1.2-0.2,1.8-1.9,2c0-0.5,0-1-0.1-1.2c-0.1-0.2-0.3-0.4-0.7-0.5v-0.2c0,0,0.6,0,0.8,0c0.2,0,0.2-0.1,0.2-0.3V65h-1.4v9.7
				c0,0.1-0.5,0.5-1.5,0.5h-0.3V65h-1.4v7.6c0,0.1-0.5,0.5-1.4,0.5H351v-9.3l1.9,0.7h1.2V62h-3.6l-0.1-0.5h6.9l1-1.3
				c0,0,1.1,0.9,1.8,1.5c0,0.2-0.2,0.3-0.5,0.3H355.9z"/>
		</g>
	</g>
	<g>
		<path d="M426.5,64.8c-0.6,0.4-1.3,0.8-2.1,1.3v3.2c0,1.2-0.3,1.8-2.2,2c0-0.5-0.1-0.9-0.3-1.1c-0.2-0.2-0.5-0.4-1.1-0.5v-0.2
			c0,0,1.2,0.1,1.5,0.1c0.2,0,0.3-0.1,0.3-0.2v-2.1c-0.4,0.2-0.8,0.4-1.2,0.7c0,0.2-0.2,0.4-0.4,0.4l-1-1.7c0.5-0.1,1.5-0.4,2.6-0.7
			v-2.2h-2.1l-0.1-0.5h2.2v-2.9l2.3,0.2c0,0.2-0.2,0.4-0.5,0.4V63h0.1l0.8-1.1c0,0,0.9,0.8,1.5,1.4c0,0.2-0.2,0.3-0.4,0.3h-2v1.7
			c0.6-0.2,1.3-0.4,2-0.6L426.5,64.8z M423,71.4c0.6,2-0.2,3.3-1.1,3.8c-0.6,0.3-1.4,0.1-1.6-0.5c-0.2-0.6,0.2-1,0.7-1.2
			c0.8-0.2,1.7-1,1.8-2H423z M434.9,69c0.4,0.4,0.5,0.7,0.4,1.1c-0.2,0.7-0.8,0.8-1.6,0.6c-2.2-0.7-2.4-3.8-2.4-7.4h-1.4
			c-0.1,1.1-0.2,2.2-0.5,3.1c2.6,1.5,1.8,3.5,0.3,2.9c-0.3-0.4-0.6-0.9-1.1-1.4c-0.8,1.1-2,2.1-3.9,2.9l-0.2-0.2
			c1.6-1.1,2.5-2.3,3-3.8c-0.5-0.5-1.1-1-1.6-1.3l0.1-0.1c0.6,0.1,1.2,0.2,1.7,0.4c0.2-0.8,0.2-1.6,0.3-2.5h-1.2l-0.1-0.5h1.4
			c0-0.9,0-1.8,0-2.7l2.5,0.2c0,0.2-0.2,0.4-0.6,0.4c0,0.7,0,1.4-0.1,2.1h1.2L432,62l1.7,1.3c-0.1,0.1-0.3,0.2-0.6,0.2
			c-0.1,2,0,4.8,0.9,5.2c0.2,0.1,0.2,0,0.3-0.2c0.2-0.4,0.3-0.9,0.4-1.4l0.2,0L434.9,69z M424.9,71.3c3.8,2,1.8,4.9,0.4,3.4
			c0.1-1.1-0.2-2.4-0.5-3.3L424.9,71.3z M428.1,71.2c4.5,1.5,2.8,5,1.1,3.6c0-1.2-0.6-2.5-1.3-3.5L428.1,71.2z M431.6,71
			c5.1,1.5,3.5,5.2,1.7,3.8c-0.2-1.3-1.1-2.7-1.8-3.8L431.6,71z"/>
		<path d="M437.3,62.1l2.6,0.2c0,0.3-0.2,0.5-0.7,0.5v11.8c0,0.2-0.8,0.6-1.6,0.6h-0.3V62.1z M438.8,60c5,0.6,3.8,4.3,1.9,3.2
			c-0.3-1.1-1.3-2.3-2.1-3.1L438.8,60z M450.9,62c-0.1,0.1-0.3,0.3-0.7,0.3V73c0,1.3-0.3,2-2.6,2.2c0-0.6-0.2-1.1-0.5-1.3
			c-0.3-0.3-0.7-0.5-1.7-0.7V73c0,0,2.1,0.1,2.5,0.1c0.3,0,0.4-0.1,0.4-0.4V62h-5.3l-0.1-0.5h5.3l0.9-1L450.9,62z"/>
		<path d="M458.6,70.3c-0.6,0.7-1.7,2-3.1,3.4c-0.1,0.4-0.4,0.6-0.5,0.8l-1.3-2c0.7-0.4,0.8-0.5,0.8-0.9v-6.7h-1.8l-0.1-0.5h2
			l0.8-0.8l1.6,1.3c-0.1,0.1-0.3,0.2-0.7,0.3v6.2c0.7-0.4,1.5-0.8,2.3-1.2L458.6,70.3z M453.3,60.2c4.9,0.5,3.9,4.1,2,3.1
			c-0.4-1-1.4-2.2-2.2-3L453.3,60.2z M466.7,68c-0.1,0.2-0.3,0.2-0.7,0.3c-0.6,1.5-1.5,2.7-2.7,3.8c1.3,0.6,2.9,1,4.5,1.2l0,0.2
			c-0.9,0.2-1.4,0.8-1.7,1.8c-1.7-0.5-3.1-1.2-4.2-2.1c-1.5,1-3.4,1.7-5.8,2.1l-0.1-0.2c2-0.7,3.7-1.6,5-2.8
			c-0.9-1.1-1.6-2.5-2.1-4.3h-1.1l-0.1-0.5h6.1l1.1-1L466.7,68z M467,64.6c0.4,0.2,0.6,0.4,0.6,0.7c0,0.7-0.6,1.1-2.3,1.1h-0.9
			c-1.3,0-1.5-0.4-1.5-1.5v-3.2h-2.2v0.8c0,1.4-0.4,3.7-3.8,4.9l-0.1-0.2c1.9-1.4,2.1-3.3,2.1-4.8v-2.1l2.1,0.7h1.8l0.9-1l1.6,1.3
			c-0.1,0.1-0.3,0.2-0.6,0.2v2.6c0,0.2,0,0.2,0.3,0.2h0.5h0.5c0.1,0,0.3,0,0.4,0c0.1,0,0.3,0,0.4-0.1L467,64.6L467,64.6z
			 M459.1,67.9c0.6,1.5,1.5,2.6,2.7,3.4c0.9-1,1.5-2.1,2-3.4H459.1z"/>
		<path d="M472.8,71.6c0.8-0.3,1.7-0.7,2.6-1.1l0.1,0.2c-0.7,0.7-1.9,1.9-3.5,3.3c-0.1,0.3-0.3,0.5-0.5,0.7l-1.3-2
			c0.7-0.4,0.8-0.5,0.8-0.9V65h-2.3l-0.1-0.5h2.4l0.9-0.9l1.6,1.3c-0.1,0.1-0.3,0.2-0.6,0.3V71.6z M470.2,60.2
			c4.9,0.6,3.7,4.1,1.9,3.1c-0.4-1-1.3-2.2-2-3L470.2,60.2z M482,64.7c0,0,1.2,0.9,1.9,1.6c0,0.2-0.2,0.3-0.5,0.3h-3.8v8
			c0,0.2-0.8,0.7-1.6,0.7h-0.4v-8.7H474l-0.1-0.5h3.7v-5.9l2.5,0.3c0,0.2-0.1,0.4-0.6,0.5V66h1.4L482,64.7z"/>
		<path d="M487,71c0,0.1-0.7,0.5-1.3,0.5h-0.3v-9.3l2.2,0.2c0,0.2-0.1,0.4-0.5,0.4V71z M488,60.2l2.3,0.2c0,0.2-0.2,0.4-0.6,0.5v6.4
			c0,3.4-0.9,6.3-4.1,8.1l-0.2-0.2c2-2.1,2.5-4.8,2.5-7.9V60.2z M495.9,62v2.5h1.3l0.8-0.9l1.7,1.3c-0.1,0.1-0.3,0.2-0.6,0.3V71
			c0,1.2-0.2,1.8-1.9,2c0-0.5,0-1-0.1-1.2c-0.1-0.2-0.3-0.4-0.7-0.5v-0.2c0,0,0.6,0,0.8,0c0.2,0,0.2-0.1,0.2-0.3V65h-1.4v9.7
			c0,0.1-0.5,0.5-1.5,0.5h-0.3V65h-1.4v7.6c0,0.1-0.5,0.5-1.4,0.5h-0.3v-9.3l1.9,0.7h1.2V62h-3.6l-0.1-0.5h6.9l1-1.3
			c0,0,1.1,0.9,1.8,1.5c0,0.2-0.2,0.3-0.5,0.3H495.9z"/>
	</g>
	<g>
		<g>
			<path style="&st8;" d="M890,15.8c0-4.2-4.1-7.6-9.1-7.6c-5,0-9.1,3.4-9.1,7.6c0,4.2,4.1,7.6,9.1,7.6c1,0,2-0.1,2.9-0.4
				c0.1,0,0.2,0,0.2,0l3.3,1.7l-0.9-2.7c0,0,0.1,0,0.1-0.1C888.6,20.5,890,18.3,890,15.8z M877.8,14.5c-0.7,0-1.3-0.6-1.3-1.2
				c0-0.7,0.6-1.2,1.3-1.2c0.7,0,1.3,0.6,1.3,1.2C879.1,13.9,878.5,14.5,877.8,14.5z M884.1,14.5c-0.7,0-1.3-0.6-1.3-1.2
				c0-0.7,0.6-1.2,1.3-1.2c0.7,0,1.3,0.6,1.3,1.2C885.4,13.9,884.8,14.5,884.1,14.5z"/>
			<path style="&st8;" d="M870.7,0C864.8,0,860,4,860,9c0,2.9,1.6,5.5,4.2,7.1c0,0,0.1,0.1,0.1,0.1l-1,3.2l3.9-2c0,0,0.1,0,0.2,0.1
				c1.1,0.3,2.2,0.5,3.4,0.5c0.2,0,0.5,0,0.7,0c-0.2-0.7-0.3-1.4-0.3-2.1c0-4.5,4.4-8.2,9.8-8.2c0.2,0,0.3,0,0.5,0
				C880.5,3.3,876.1,0,870.7,0z M867,7.3c-0.8,0-1.5-0.7-1.5-1.5s0.7-1.5,1.5-1.5s1.5,0.7,1.5,1.5S867.8,7.3,867,7.3z M874.5,7.3
				c-0.8,0-1.5-0.7-1.5-1.5s0.7-1.5,1.5-1.5c0.8,0,1.5,0.7,1.5,1.5S875.3,7.3,874.5,7.3z"/>
		</g>
	</g>
	<g>
		<path style="&st8;" d="M957.5,0h-10.9c-3.6,0-6.5,2.9-6.5,6.5v10.9c0,3.6,2.9,6.5,6.5,6.5h10.9c3.6,0,6.5-2.9,6.5-6.5V6.5
			C964,2.9,961.1,0,957.5,0z M961.8,17.5c0,2.4-2,4.4-4.4,4.4h-10.9c-2.4,0-4.4-2-4.4-4.4V6.5c0-2.4,2-4.4,4.4-4.4h10.9
			c2.4,0,4.4,2,4.4,4.4V17.5z"/>
		<g>
			<path style="&st8;" d="M952,18.3c-3.5,0-6.3-2.8-6.3-6.3s2.8-6.3,6.3-6.3s6.3,2.8,6.3,6.3S955.5,18.3,952,18.3z M952,7.9
				c-2.3,0-4.1,1.8-4.1,4.1s1.8,4.1,4.1,4.1s4.1-1.8,4.1-4.1S954.3,7.9,952,7.9z"/>
		</g>
		<circle style="&st8;" cx="958.5" cy="5.7" r="1.5"/>
	</g>
	<path style="&st8;" d="M923.5,0h-23c-0.3,0-0.5,0.2-0.5,0.5v23c0,0.3,0.2,0.5,0.5,0.5h12.3v-9.3h-3.1V11h3.1V8.6
		c0-0.6-0.1-2.4,1.2-3.7c1.3-1.4,3-1.4,3.3-1.4l3,0.2V7h-2.4c-0.3,0-0.6,0.1-0.9,0.4c-0.3,0.3-0.4,1-0.4,1.1V11h3.6l-0.5,3.6h-3.1
		V24h6.9c0.3,0,0.5-0.2,0.5-0.5v-23C924,0.2,923.8,0,923.5,0z"/>
	<g>
		<line style="&st15;" x1="868" y1="44" x2="860" y2="44"/>
		<line style="&st15;" x1="864" y1="40" x2="864" y2="48"/>
	</g>
	<g style="&st16;">
		<g style="&st17;">
			<rect x="420" y="420" style="&st12;" width="24" height="24"/>
		</g>
		<g>
			<g>
				<ellipse style="&st18;" cx="432" cy="432" rx="9.1" ry="7.7"/>
			</g>
			<g>
				<circle style="&st8;" cx="432" cy="432" r="2.9"/>
			</g>
		</g>
	</g>
	<g style="&st16;">
		<g style="&st3;">
			<rect x="360" y="420" width="24" height="24"/>
		</g>
		<path style="&st18;" d="M379.2,432.5c1.9-1.9,1.9-4.9,0-6.8s-4.9-1.9-6.8,0c-0.2,0.2-0.3,0.3-0.4,0.5c-0.1-0.2-0.3-0.4-0.4-0.5
			c-1.9-1.9-4.9-1.9-6.8,0s-1.9,4.9,0,6.8l7.3,7.3L379.2,432.5z"/>
	</g>
	<g style="&st16;">
		<g style="&st19;">
			<g style="&st17;">
				<rect x="480" y="420" style="&st12;" width="22" height="22"/>
			</g>
			<rect x="481.8" y="421.8" style="&st20;" width="18.3" height="18.3"/>
			<circle style="&st20;" cx="491" cy="431" r="9.6"/>
		</g>
		<polygon style="&st21;" points="482.3,423.2 482.3,437 486,437 486,439.7 490.1,437 499.7,437 499.7,423.2 		"/>
		<polygon style="&st18;" points="482.3,423.2 482.3,437 486,437 486,439.7 490.1,437 499.7,437 499.7,423.2 		"/>
		<circle style="&st8;" cx="486" cy="430" r="1"/>
		<circle style="&st8;" cx="491" cy="430" r="1"/>
		<circle style="&st8;" cx="496" cy="430" r="1"/>
	</g>
	<g>
		<g>
		</g>
		<g id="Qzone_1_">
			<g>
				<path style="&st8;" d="M26.9,353.1l-6.9-1.2c-0.1,0-0.2-0.1-0.3-0.2l-3.3-6.1c-0.1-0.1-0.2-0.2-0.3-0.2c-0.1,0-0.2,0.1-0.3,0.2
					l-3.3,6.1c-0.1,0.1-0.1,0.2-0.3,0.2l-6.9,1.2c-0.3,0-0.4,0.4-0.2,0.7l5,5.2c0.1,0.1,0.1,0.2,0.1,0.3l-1.1,6.9
					c0,0.3,0.2,0.6,0.6,0.4l6.4-3c0,0,0.1,0,0.2,0c0.1,0,0.1,0,0.2,0l6.4,3c0.2,0.1,0.6-0.1,0.6-0.4l-0.9-5.2
					c1.1-0.8,1.7-1.4,1.7-1.6c0.1-0.1,0-0.2,0-0.2l0,0c-1.8,0.8-6,2-11.2,1.8c-0.7,0-1.2-0.1-1.7-0.1c-0.3-0.1-0.4-0.4-0.2-0.7
					c1.4-1.2,6.3-4.8,6.4-4.8c0.1-0.1,0.1-0.2,0-0.2c-0.1-0.1-2.8-1-6.9-0.4c-0.3,0-0.4-0.3-0.2-0.4c1.1-0.6,3.8-1.3,6.4-1.3
					c1.9,0,3.4,0.6,4,0.9c0.2,0.2,0.2,0.4,0,0.6c-1,0.9-3.9,2.9-4.9,3.5c-0.1,0.1-0.1,0.2,0,0.2c1.7,0.7,4.3,0.9,6.1,0.9l5.1-5.3
					C27.3,353.6,27.2,353.2,26.9,353.1z"/>
			</g>
		</g>
	</g>
	<g>
		<g>
		</g>
		<path style="&st8;" d="M63.4,358.4c-0.2-0.6-0.4-1.2-0.6-1.8l-0.9-2.2c0,0,0-0.5,0-0.7c0-3.7-1.7-7.3-5.9-7.3s-5.9,3.7-5.9,7.3
			c0,0.2,0,0.6,0,0.7l-0.9,2.2c-0.2,0.6-0.5,1.3-0.6,1.8c-0.8,2.6-0.6,3.7-0.4,3.7c0.4,0.1,1.7-2,1.7-2c0,1.2,0.6,2.7,1.9,3.8
			c-0.5,0.2-1.1,0.4-1.5,0.7c-0.3,0.3-0.3,0.5-0.2,0.6c0.3,0.5,4.7,0.3,5.9,0.2c1.3,0.1,5.6,0.3,5.9-0.2c0.1-0.1,0.1-0.4-0.2-0.6
			c-0.4-0.3-1-0.5-1.5-0.7c1.3-1.1,1.9-2.6,1.9-3.8c0,0,1.2,2,1.7,2C64,362,64.2,361,63.4,358.4z"/>
	</g>
	<g>
		<g>
		</g>
		<g>
			<g>
				<path style="&st8;" d="M133.3,356.5c-1.9,0.2-3.7,2-3.5,3.7c0.1,1.7,1.8,2.7,3.8,2.5s3.5-1.7,3.4-3.4
					C136.8,357.6,135.3,356.4,133.3,356.5z M132.5,361.1c-0.6,0.1-1.3-0.2-1.4-0.6c-0.1-0.4,0.3-1.1,1.1-1.2
					c0.6-0.1,1.3,0.2,1.4,0.6C133.7,360.4,133.3,361,132.5,361.1z M143.2,354.2c0.3,0,0.6-0.2,0.7-0.5l0,0l0,0l0,0
					c0.1-0.2,0.1-0.5,0.1-0.8c0-1.6-1.3-2.9-2.9-2.9c-0.2,0-0.4,0-0.5,0.1c-0.3,0.1-0.6,0.4-0.6,0.7c0,0.4,0.3,0.7,0.7,0.7h0.1l0,0
					c0.1,0,0.2,0,0.3,0c0.7,0,1.3,0.5,1.3,1.3c0,0.1,0,0.3-0.1,0.4l0,0c0,0.1,0,0.1,0,0.2C142.5,353.9,142.8,354.2,143.2,354.2z
					 M141.3,347c-0.4,0-0.7,0-1.2,0.1c-0.4,0.1-0.7,0.4-0.7,0.8c0,0.5,0.4,1,1,1c0.1,0,0.1,0,0.2,0l0,0c0.2-0.1,0.5-0.1,0.8-0.1
					c2.2,0,4,1.8,4,4c0,0.4-0.1,0.8-0.2,1.3l0,0c0,0.1,0,0.2,0,0.3c0,0.5,0.4,1,1,1c0.4,0,0.8-0.3,0.8-0.7c0.1-0.5,0.2-1.1,0.2-1.7
					C147.2,349.5,144.5,347,141.3,347z M141.2,355.5c0.3-1.1,0.7-2.5-0.3-3.1c-1.3-0.5-3-0.3-5,0.4c0.1-0.6,0.1-1.1,0.1-1.7
					c0-0.7-0.6-1.6-1.5-1.7c-4-0.1-9.7,5.9-9.7,9.2c0,1.1,0.1,2.2,1.5,3.5c2,1.8,4.7,2.8,8,2.8c3.9,0,7.4-1.6,9.2-3.9
					c0.6-0.7,1-2,0.8-2.5C144.3,357.1,143.1,356,141.2,355.5z M134.1,363.6c-3.6,0.2-6.8-1.5-6.9-3.8c-0.1-2.3,2.7-4.8,6.8-4.9
					c3.8-0.1,6.3,1.5,6.5,3.8C140.6,361.2,137.7,363.4,134.1,363.6z"/>
			</g>
		</g>
	</g>
	<g>
		<g>
		</g>
		<g>
			<path style="&st8;" d="M178.5,350.1h2.4V347l-2.6-0.2c-0.3,0-1.8,0-3,1.3c-1.1,1.2-1,2.9-1,3.4v2.3h-2.8v3.3h2.8v8.6h3.5v-8.6
				h2.9l0.4-3.3h-3.3v-2.4c0,0,0-0.6,0.3-0.8C178.1,350.2,178.3,350.1,178.5,350.1z"/>
		</g>
	</g>
	<g>
		<g>
		</g>
		<g>
			<g>
				<path style="&st8;" d="M107.2,358.6c0-3.1-3-5.7-6.8-5.7c-3.7,0-6.8,2.5-6.8,5.7c0,3.1,3,5.7,6.8,5.7c0.7,0,1.5-0.1,2.1-0.3
					c0,0,0.1,0,0.1,0l2.4,1.2l-0.7-2c0,0,0,0,0.1,0C106.2,362.1,107.2,360.5,107.2,358.6z M98.1,357.6c-0.5,0-0.9-0.4-0.9-0.9
					c0-0.5,0.4-0.9,0.9-0.9c0.5,0,0.9,0.4,0.9,0.9C99,357.2,98.6,357.6,98.1,357.6z M102.8,357.6c-0.5,0-0.9-0.4-0.9-0.9
					c0-0.5,0.4-0.9,0.9-0.9c0.5,0,0.9,0.4,0.9,0.9C103.7,357.2,103.3,357.6,102.8,357.6z"/>
				<path style="&st8;" d="M92.8,346.8c-4.4,0-8,3-8,6.7c0,2.2,1.2,4.1,3.1,5.3c0,0,0.1,0,0.1,0l-0.8,2.4l2.9-1.5c0,0,0.1,0,0.1,0
					c0.8,0.2,1.6,0.3,2.5,0.3c0.2,0,0.4,0,0.5,0c-0.2-0.5-0.3-1-0.3-1.6c0-3.4,3.3-6.1,7.3-6.1c0.1,0,0.2,0,0.3,0
					C100.1,349.3,96.8,346.8,92.8,346.8z M90,352.3c-0.6,0-1.1-0.5-1.1-1.1s0.5-1.1,1.1-1.1c0.6,0,1.1,0.5,1.1,1.1
					S90.6,352.3,90,352.3z M95.6,352.3c-0.6,0-1.1-0.5-1.1-1.1s0.5-1.1,1.1-1.1c0.6,0,1.1,0.5,1.1,1.1S96.2,352.3,95.6,352.3z"/>
			</g>
		</g>
	</g>
	<g style="&st16;">
		<g style="&st19;">
			<g style="&st17;">
				<rect x="140" y="380" style="&st12;" width="44" height="44"/>
			</g>
			<rect x="143.7" y="383.7" style="&st20;" width="36.7" height="36.7"/>
			<circle style="&st20;" cx="162" cy="402" r="19.2"/>
		</g>
		<polygon style="&st22;" points="144.6,386.4 144.6,413.9 151.9,413.9 151.9,419.4 160.2,413.9 179.4,413.9 179.4,386.4 		"/>
		<polygon style="&st18;" points="144.6,386.4 144.6,413.9 151.9,413.9 151.9,419.4 160.2,413.9 179.4,413.9 179.4,386.4 		"/>
		<circle style="&st8;" cx="152" cy="400" r="2"/>
		<circle style="&st8;" cx="162" cy="400" r="2"/>
		<circle style="&st8;" cx="172" cy="400" r="2"/>
	</g>
	<g>
		<g style="&st19;">
			<rect x="200" y="380" style="&st20;" width="24" height="24"/>
			<rect x="202" y="382" style="&st20;" width="20" height="20"/>
			<circle style="&st20;" cx="212" cy="392" r="10.5"/>
		</g>
		<g>
			<line style="&st23;" x1="206" y1="392" x2="214.5" y2="400.5"/>
			<line style="&st23;" x1="206" y1="392" x2="214.5" y2="383.5"/>
		</g>
	</g>
	<g>
		<g style="&st19;">
			<rect x="240" y="380" style="&st20;" width="24" height="24"/>
			<rect x="242" y="382" style="&st20;" width="20" height="20"/>
			<circle style="&st20;" cx="252" cy="392" r="10.5"/>
		</g>
		<g>
			<line style="&st23;" x1="258" y1="392" x2="249.5" y2="383.5"/>
			<line style="&st23;" x1="258" y1="392" x2="249.5" y2="400.5"/>
		</g>
	</g>
	<g>
		<g style="&st19;">
			<rect x="280" y="380" style="&st20;" width="24" height="24"/>
			<rect x="282" y="382" style="&st20;" width="20" height="20"/>
			<circle style="&st20;" cx="292" cy="392" r="10.5"/>
		</g>
		<g>
			<line style="&st23;" x1="292" y1="402" x2="300.5" y2="393.5"/>
			<line style="&st23;" x1="292" y1="382" x2="292" y2="402"/>
			<g>
				<defs>
					
						<rect id="SVGID_3_" x="280.5" y="393.5" transform="matrix(6.123234e-17 -1 1 6.123234e-17 -111.5 683)" width="10.5" height="7.5"/>
				</defs>
				<clipPath id="SVGID_4_">
					<use xlink:href="#SVGID_3_"  style="overflow:visible;"/>
				</clipPath>
				<line style="&st24;" x1="290.5" y1="400.5" x2="283.5" y2="393.5"/>
			</g>
		</g>
	</g>
	<g>
		<g style="&st3;">
			<rect x="360" y="460" width="24" height="24"/>
		</g>
		<path style="&st6;" d="M379.2,472.5c1.9-1.9,1.9-4.9,0-6.8s-4.9-1.9-6.8,0c-0.2,0.2-0.3,0.3-0.4,0.5c-0.1-0.2-0.3-0.4-0.4-0.5
			c-1.9-1.9-4.9-1.9-6.8,0s-1.9,4.9,0,6.8l7.3,7.3L379.2,472.5z"/>
		<path style="&st8;" d="M379.2,472.5c1.9-1.9,1.9-4.9,0-6.8s-4.9-1.9-6.8,0c-0.2,0.2-0.3,0.3-0.4,0.5c-0.1-0.2-0.3-0.4-0.4-0.5
			c-1.9-1.9-4.9-1.9-6.8,0s-1.9,4.9,0,6.8l7.3,7.3L379.2,472.5z"/>
	</g>
	<g>
		<g style="&st3;">
			<rect x="360" y="500" width="24" height="24"/>
		</g>
		<path style="&st7;" d="M379.2,512.5c1.9-1.9,1.9-4.9,0-6.8s-4.9-1.9-6.8,0c-0.2,0.2-0.3,0.3-0.4,0.5c-0.1-0.2-0.3-0.4-0.4-0.5
			c-1.9-1.9-4.9-1.9-6.8,0s-1.9,4.9,0,6.8l7.3,7.3L379.2,512.5z"/>
		<path d="M379.2,512.5c1.9-1.9,1.9-4.9,0-6.8s-4.9-1.9-6.8,0c-0.2,0.2-0.3,0.3-0.4,0.5c-0.1-0.2-0.3-0.4-0.4-0.5
			c-1.9-1.9-4.9-1.9-6.8,0s-1.9,4.9,0,6.8l7.3,7.3L379.2,512.5z"/>
	</g>
	<g>
		<path style="&st25;" d="M643.2,6.8c-0.9,0.5-1.9,1-3,1.4L640,8c1.4-0.8,2.6-1.8,3.6-3c-0.3,0.1-0.7,0-1.1-0.3
			c-0.1-0.8-0.6-1.6-1.1-2l0.1-0.1c2,0,2.7,0.7,2.8,1.3c0.5-0.7,0.8-1.5,1.1-2.3H642l-0.1-0.5h3.5l1-1l1.7,1.5
			c-0.1,0.2-0.3,0.2-0.6,0.3c-0.5,1.2-1.3,2.4-2.3,3.3h2.9l0.9-1.2c0,0,1,0.8,1.7,1.4c0,0.2-0.2,0.3-0.4,0.3h-5L645,5.4
			c-0.5,0.4-1,0.8-1.5,1.2l1.6,0.6h5l0.9-0.9l1.8,1.3c-0.1,0.1-0.3,0.2-0.6,0.3v2.7c0,0.1-1,0.4-1.6,0.4h-0.3v-0.7H645v0.4
			c0,0.1-0.3,0.2-0.6,0.4c3.9,0.8,2.1,3.9,0.5,2.5c0-0.8-0.4-1.8-0.8-2.4c-0.2,0-0.4,0.1-0.7,0.1h-0.3V6.8z M653.1,12.7
			c0,0,1.2,1,2,1.6c0,0.2-0.2,0.3-0.5,0.3h-13.9l-0.1-0.4h8c0.3-0.9,0.7-2.2,0.8-3.1l2.4,0.8c-0.1,0.2-0.3,0.3-0.6,0.3
			c-0.6,0.6-1.5,1.4-2.3,2.1h3.1L653.1,12.7z M645,7.7v2.2h5.3V7.7H645z M655.2,3.6c-0.1,0.1-0.2,0.2-0.6,0.1
			c-0.7,0.3-1.6,0.7-2.5,1c1,0.7,2.2,1.3,3.3,1.7l0,0.2c-0.8,0.1-1.4,0.7-1.7,1.5c-2.8-1.6-4.7-4.1-5.6-8l0.2-0.1
			c0.4,1,0.9,2,1.6,2.8c0.6-0.7,1.2-1.7,1.6-2.3l1.9,1.2c-0.1,0.1-0.2,0.2-0.6,0.1c-0.6,0.4-1.6,0.9-2.5,1.2
			c0.4,0.5,0.9,0.9,1.4,1.3c0.7-0.7,1.3-1.5,1.7-2.1L655.2,3.6z"/>
		<path style="&st25;" d="M664.6,6.4c0.4,1.2,1,2.2,1.7,3c0.7-0.8,1.5-2,1.9-2.7l2,1.3c-0.1,0.1-0.2,0.2-0.6,0.1
			c-0.8,0.5-1.9,1.1-2.9,1.5c1.3,1.3,3,2,4.5,2.4l0,0.2c-0.7,0.2-1.2,0.9-1.5,1.7c-2.4-1.4-4.1-3.2-5.1-6.9v5.7
			c0,1.2-0.3,2.1-2.5,2.3c0-0.6-0.1-1-0.4-1.3c-0.3-0.3-0.6-0.5-1.5-0.6v-0.2c0,0,1.7,0.1,2.1,0.1c0.3,0,0.3-0.1,0.3-0.3V10
			c-1.1,0.9-2.6,2-4.5,3.4c0,0.2-0.1,0.4-0.3,0.5l-1.4-1.9c1.1-0.4,3.6-1.4,6.3-2.6V6.3h-6.3l-0.1-0.5h9.6l0.1-1.9h-7.3l-0.1-0.5
			h7.5l0.1-2h-7.9L658.1,1h7.9l0.8-0.9l1.9,1.4c-0.1,0.1-0.3,0.2-0.6,0.2l-0.2,4.1h0.3l1.1-1.4c0,0,1.2,0.9,2,1.6
			c0,0.2-0.2,0.3-0.5,0.3L664.6,6.4L664.6,6.4z M658.3,6.8c4.6,0.5,3.2,3.9,1.5,2.8c-0.2-0.9-0.9-2-1.6-2.7L658.3,6.8z"/>
	</g>
	<g>
		<g>
			<path d="M25.4,0.3l-1.9,2.4H7L3,1v9.6c0,6-0.2,12.8-3,18.3L0.4,29c5.8-5.1,6.1-12.9,6.1-18.5V3.3H28c0.5,0,0.8-0.2,0.9-0.5
				C27.5,1.7,25.4,0.3,25.4,0.3z"/>
			<path d="M20.4,20l-0.2,0.2c1.7,1.7,3.8,4.4,4.6,6.7C28.5,29.2,30.8,22,20.4,20z"/>
			<path d="M13.6,21.2l-3.4-1.8c-1,2.6-3.3,6-6,8.2l0.2,0.3c3.5-1.3,6.6-3.5,8.5-5.8l0,0C12.9,22.2,13.3,21.7,13.6,21.2z"/>
			<path d="M26.4,8.5l-4.6-2.3v1.8h-0.3h-6c0.9-0.6,1.8-1.5,2.6-2.4c0.2-0.2,0.5-0.6,0.8-1.1l-4-0.9c-0.1,1.5-0.2,3.2-0.4,4.3h-1.8
				L8.9,6.5v11.1v1.9l3.5-1v-0.9h3v7.2c0,0.3-0.1,0.5-0.6,0.5c-0.6,0-3.6-0.2-3.6-0.2v0.4c1.5,0.2,2.2,0.6,2.6,1.1
				c0.4,0.5,0.5,1.3,0.6,2.4c4-0.3,4.5-1.8,4.5-4.2v-7.2h2.8v1.3l3.5-1V9.7L26.4,8.5z M12.4,17v-1.4V13v-0.6v-1.9V8.5h9.4V17H12.4z"
				/>
			<polygon points="13.2,13.2 13.2,15.2 21,12.4 21,10.3 			"/>
		</g>
		<g>
			<path d="M58.4,2.8l-4.3-2.2l0,24c0,0.4-0.2,0.5-0.6,0.5c-0.6,0-3.7-0.2-3.7-0.2v0.4c1.5,0.2,2.1,0.6,2.6,1.1
				c0.5,0.5,0.6,1.3,0.7,2.4c3.8-0.4,4.3-1.7,4.3-4.1v-21L58.4,2.8z"/>
			<polygon points="48.6,2.8 48.6,4.9 48.6,22.5 51.7,21.6 51.7,5.9 52.6,4.9 			"/>
			<polygon points="36.6,14.1 36.6,15.5 42.2,13.5 42.2,12 			"/>
			<path d="M42.9,18.7v1.4h-0.3h-4.7l-2.1-0.8c0.1-0.6,0.2-1.3,0.3-1.9h6.6v1l0,0v0l3.3-1v-5.8l1-1.1l-1-0.5v0h0l-3.3-1.7v1.7h-0.3
				h-5.6l-3.1-1.1c0.6-0.5,1.2-1,1.8-1.5l0.1,0.2h7.5c0.4,0,0.7-0.2,0.8-0.5c-1.1-1-2.8-2.1-2.8-2.1l-1.5,2h-3.7
				c1.6-1.5,2.9-3.1,3.9-4.7c0-0.1,0.1-0.1,0.1-0.2l0,0l0.1,0c2.3,1.7,3.8,4,4.3,5.7c2.8,2.1,6.3-4-3.7-6l-0.4-0.1l0,0
				c0,0,0,0,0-0.1c0.1-0.3,0.3-0.5,0.4-0.8l-4.1-0.8c-1.1,3.3-3.7,8-6.9,10.9l0.2,0.3C31,10.8,32,10.2,33,9.5v4.6
				c0,4.2-0.2,9.4-3.1,13.6l0.3,0.3c1.9-1.3,3.2-2.9,4-4.5v5.6l3.2-0.9v-1.6h5.4v2.1l3.4-1V22l1-1.1L42.9,18.7z M36.2,14.1v-0.6
				v-2.8h6.4v6.2h-6.4h-0.1C36.2,16,36.2,14.8,36.2,14.1z M42.9,25.9h-5.4v-5.2h5.4V25.9z"/>
		</g>
		<g>
			<path d="M78.3,0.2l-0.2,0.2c0.8,0.9,1.5,2.4,1.6,3.8C82.7,6.5,86,0.7,78.3,0.2z"/>
			<polygon points="65.9,14.7 65.9,15.7 68.7,14.7 68.7,13.7 			"/>
			<path d="M89.4,5.5L86.8,3L85,4.8h-9.1c-0.2-0.5-0.3-1-0.6-1.6h-0.5c0.2,1-0.4,2.2-1,2.6c-0.3,0.1-0.5,0.3-0.7,0.5
				C73.8,5.1,73,3,68.4,1.8v0c0,0,0,0,0,0c0-0.1,0.2-0.6,0.3-0.9L64.4,0c-0.5,3-2.1,8.1-4,11.1l0.3,0.2c0.6-0.4,1.2-0.9,1.8-1.5
				v14.1c0,0.7-0.2,0.9-1.1,1.5l1.6,3.1l1.9-1.3c1.9-1.4,3.5-2.6,4.7-3.6c0.4,0.9,0.7,1.9,0.8,2.8c2.9,2.4,5.8-3.6-2.2-6l-0.3,0.2
				c0.5,0.7,0.9,1.5,1.3,2.4c-1.3,0.4-2.5,0.9-3.6,1.2v-5.4H69v1.1l3.2-0.9v-6.6l0.9-1.1l-4.1-2v1.5h-0.2h-3l-3-1.2
				c0.6-0.5,1.1-1.1,1.6-1.6l0.2,0.2h6.2c0.4,0,0.7-0.2,0.8-0.5c-1-1-2.7-2-2.7-2l-1.5,1.9h-2.6c1.4-1.7,2.6-3.5,3.4-5.2
				c1.2,1.4,2,3.2,2.4,4.4c0.8,0.7,1.7,0.6,2.3,0.1c-0.2,0.3-0.3,0.8-0.2,1.3c0.3,0.9,1.5,1.2,2.3,0.9V29l3.2-0.9c0,0,0,0,0-0.1
				v-1.7h6.2v2.3l3.2-0.9v-7.2l0.9-1.1l-4.1-2.1v1.7H84h-5.9v-3.5h5.3v1.6l3.2-0.9l0-5.9l0.9-1.1l-1.7-0.8c0.7-0.4,1.4-1,2.1-1.6
				C88.2,6.7,88.9,6.1,89.4,5.5z M65.7,11.3H69v6.8h-3.3V11.3z M84.3,19.8v5.9h-6.2v-5.9H84.3z M83.4,15.1h-5.3V10h5.3V15.1z
				 M85.2,8.2l-1.8-0.9v2h-0.3h-0.3h-4.6l-2.6-1.1c0.3-0.5,0.5-1.2,0.5-2c0,0,0,0,0,0c0-0.1,0-0.2,0-0.3c0-0.3-0.1-0.5-0.1-0.5h9.3
				C85.3,6.2,85.3,7.4,85.2,8.2z"/>
		</g>
	</g>
	<g>
		<g style="&st3;">
			<rect x="540" y="380" width="24" height="24"/>
		</g>
		<ellipse style="&st26;" cx="552" cy="392.1" rx="9" ry="8.9"/>
		<line style="&st27;" x1="552" y1="387" x2="552" y2="392"/>
		<line style="&st27;" x1="554" y1="392" x2="552" y2="392"/>
	</g>
	<text transform="matrix(1 0 0 1 843.8374 392.3271)" style="&st28; &st29; &st30;">END</text>
	<g>
		<path d="M369.7,641.1c-0.2,0.2-0.7,0.4-1.3,0.4c1.2,1.5,4.1,3,6.9,3.7v0.2c-0.8,0.2-1.5,1-1.7,1.8c-2.3-1.3-4.6-3.3-5.6-5.6
			c-1.6,2.7-4.6,4.9-7.9,6.2l-0.1-0.2c2.4-1.5,4.7-3.9,5.7-6.1H363l-0.1-0.5h4.7l0.6-1L369.7,641.1z M372.9,652.7
			c0,0,1.2,0.9,1.9,1.5c0,0.2-0.2,0.3-0.4,0.3h-13.5l-0.1-0.4h5.8v-3.4h-4.1l-0.1-0.4h4.3v-3.1H363l-0.1-0.5h6.7l0.9-1.2
			c0,0,1.1,0.8,1.7,1.4c0,0.2-0.2,0.3-0.4,0.3h-3.3v3.1h2.1l1-1.3c0,0,1.1,0.9,1.8,1.5c0,0.2-0.2,0.3-0.4,0.3h-4.5v3.4h3.3
			L372.9,652.7z"/>
		<path d="M383.4,645.4c0,0,1.1,0.9,1.8,1.5c0,0.2-0.2,0.3-0.4,0.3h-8.5l-0.1-0.4h4.8c0.3-1.2,0.6-2.9,0.7-3.7l2.4,0.8
			c0,0.2-0.2,0.3-0.6,0.3c-0.4,0.7-1.3,1.8-2.1,2.7h1.1L383.4,645.4z M376.4,642.4h3.8c-0.2,0-0.4-0.1-0.6-0.3c0-0.7-0.3-1.5-0.7-2
			l0.1-0.1c3,0.3,2.6,2.1,1.6,2.4h1.5l1-1.2c0,0,1.1,0.8,1.7,1.4c0,0.2-0.2,0.3-0.4,0.3h-7.9L376.4,642.4z M382.5,647.9l1.6,1.2
			c-0.1,0.1-0.3,0.2-0.6,0.3v4.5c0,0.1-0.6,0.4-1.5,0.4h-0.3v-1.1h-2.6v1c0,0.1-0.5,0.4-1.4,0.4h-0.3v-6.6l1.9,0.7h2.4L382.5,647.9z
			 M377.7,643.2c3.6,1.5,1.9,4.3,0.5,2.9c0-1-0.3-2.1-0.7-2.8L377.7,643.2z M381.8,652.8v-3.5h-2.6v3.5H381.8z M391.4,642.2
			c-0.1,0.1-0.3,0.2-0.7,0.2c-0.6,1.1-1.8,2.8-2.7,3.9c2.1,1.2,2.9,2.8,2.9,4.2c0,1.6-0.7,2.6-2.7,2.6c0-0.5-0.1-1.2-0.2-1.5
			c-0.1-0.2-0.4-0.3-0.9-0.4V651h1.3c0.2,0,0.3,0,0.4-0.1c0.3-0.2,0.4-0.4,0.4-1c0-1.2-0.5-2.4-1.6-3.6c0.4-1.1,0.8-3.1,1.1-4.5H387
			v12.6c0,0.1-0.5,0.6-1.5,0.6h-0.3v-14.5l2,0.9h1.4l1-0.9L391.4,642.2z"/>
		<path d="M392.1,643.8c4.3,0.2,3.1,3.5,1.4,2.4c-0.2-0.8-0.9-1.8-1.5-2.3L392.1,643.8z M397.1,643.4c-0.7,1.8-1.8,5.2-2.1,6.1
			c-0.1,0.5-0.3,1.1-0.3,1.5c0,0.8,0.7,1.4,0.6,2.8c0,0.8-0.6,1.3-1.4,1.3c-0.4,0-0.7-0.2-0.9-0.8c0.3-1.7,0.2-3.1-0.1-3.4
			c-0.2-0.2-0.5-0.2-0.8-0.3v-0.3h0.8c0.2,0,0.3,0,0.5-0.3c0.4-0.6,0.4-0.6,3.4-6.7L397.1,643.4z M393.3,640.3
			c4.5,0.2,3.3,3.5,1.6,2.6c-0.3-0.9-1.1-1.9-1.7-2.4L393.3,640.3z M405.4,643.9c0,0,1.1,0.9,1.8,1.6c0,0.2-0.2,0.3-0.4,0.3h-4.2
			v3.1h1.3l0.9-1l1.8,1.4c-0.1,0.1-0.3,0.3-0.7,0.3v4.8c0,0.1-0.9,0.5-1.6,0.5h-0.3v-1.3h-4.8v0.8c0,0.2-0.8,0.6-1.6,0.6h-0.2V648
			l1.9,0.8h1.3v-3.1h-4l-0.1-0.5h4.2v-2.7c-1.3,0.1-2.7,0.2-3.9,0.3l0-0.2c2.7-0.5,6.1-1.6,7.9-2.4l1.9,1.8c-0.2,0.1-0.6,0.2-1.1,0
			c-0.8,0.2-1.8,0.3-2.9,0.4v2.9h1.8L405.4,643.9z M399.3,649.3v3.8h4.8v-3.8H399.3z"/>
		<path d="M412.8,647.9c3.9,2.5,2.1,5.8,0.6,4.2c0-0.3,0-0.6,0-0.9c-1,0.5-2.4,1.1-3.9,1.7c-0.1,0.2-0.3,0.3-0.4,0.4l-1-2.4
			c0,0,0.4-0.1,0.6-0.2c0.7-0.8,1.7-3.4,2-4.8h-2.5l-0.1-0.5h5.3l1-1.2c0,0,1.1,0.8,1.7,1.5c0,0.2-0.2,0.3-0.4,0.3h-4.7l2.3,0.7
			c-0.1,0.2-0.2,0.3-0.5,0.3c-0.8,1.3-2.2,3-3.3,4.1c1-0.1,2.5-0.2,4-0.4c-0.1-0.9-0.4-1.8-0.7-2.6L412.8,647.9z M408.8,642.4
			l-0.1-0.5h3.8l1-1.3c0,0,1.1,0.9,1.7,1.5c0,0.2-0.2,0.3-0.4,0.3H408.8z M423.2,644.4c-0.1,0.1-0.3,0.2-0.7,0.3
			c-0.1,6.2-0.4,8.6-1.3,9.4c-0.5,0.5-1.2,0.8-2.1,0.8c0-0.6,0-1-0.2-1.2c-0.2-0.3-0.7-0.5-1.3-0.6l0-0.2c0.5,0,1.3,0.1,1.6,0.1
			c0.3,0,0.4,0,0.5-0.2c0.5-0.5,0.7-3.1,0.9-8.3h-2c-0.1,4.7-0.9,8.3-5.6,10.6l-0.2-0.2c3.3-2.7,3.9-6,3.9-10.4h-2l-0.1-0.5h2.1
			c0-1.2,0-2.5,0-3.9l2.5,0.2c0,0.2-0.2,0.4-0.6,0.5c0,1.1,0,2.2,0,3.2h1.8l1-1L423.2,644.4z"/>
	</g>
	<g>
		<path d="M366.4,564.8c-0.6,0.4-1.2,0.8-2.1,1.2v3.1c0,1.2-0.3,1.8-2.1,1.9c0-0.5-0.1-0.8-0.3-1.1c-0.2-0.2-0.5-0.4-1.1-0.5v-0.2
			c0,0,1.2,0.1,1.5,0.1c0.2,0,0.3-0.1,0.3-0.2V567c-0.4,0.2-0.8,0.4-1.2,0.7c0,0.2-0.2,0.4-0.4,0.4l-1-1.7c0.5-0.1,1.5-0.4,2.6-0.7
			v-2.2h-2.1l-0.1-0.5h2.2v-2.9l2.3,0.2c0,0.2-0.2,0.4-0.5,0.4v2.3h0.1l0.8-1.1c0,0,0.9,0.8,1.5,1.3c0,0.2-0.2,0.3-0.4,0.3h-1.9v1.7
			c0.6-0.2,1.3-0.4,2-0.6L366.4,564.8z M363,571.3c0.6,2-0.2,3.3-1.1,3.7c-0.6,0.3-1.4,0.1-1.6-0.5c-0.2-0.6,0.2-1,0.7-1.2
			c0.8-0.2,1.6-1,1.7-2H363z M374.7,568.9c0.4,0.4,0.5,0.7,0.4,1.1c-0.2,0.7-0.8,0.8-1.6,0.6c-2.2-0.7-2.4-3.7-2.3-7.3h-1.4
			c-0.1,1.1-0.2,2.2-0.5,3.1c2.5,1.4,1.8,3.5,0.3,2.8c-0.3-0.4-0.6-0.9-1-1.4c-0.8,1.1-2,2.1-3.9,2.8l-0.2-0.2
			c1.6-1.1,2.5-2.3,3-3.7c-0.5-0.5-1.1-0.9-1.6-1.3l0.1-0.1c0.6,0.1,1.2,0.2,1.7,0.4c0.2-0.8,0.2-1.6,0.3-2.4h-1.2l-0.1-0.5h1.4
			c0-0.9,0-1.8,0-2.7l2.4,0.2c0,0.2-0.2,0.4-0.6,0.4c0,0.7,0,1.4-0.1,2.1h1.2l0.9-0.9l1.7,1.3c-0.1,0.1-0.3,0.2-0.6,0.2
			c-0.1,2,0,4.8,0.9,5.1c0.2,0.1,0.2,0,0.3-0.2c0.2-0.4,0.3-0.8,0.4-1.4l0.2,0L374.7,568.9z M364.9,571.2c3.7,2,1.7,4.9,0.4,3.3
			c0.1-1.1-0.2-2.3-0.5-3.3L364.9,571.2z M368.1,571.1c4.4,1.5,2.7,5,1.1,3.5c0-1.2-0.6-2.5-1.2-3.4L368.1,571.1z M371.5,570.9
			c5,1.5,3.5,5.2,1.7,3.8c-0.2-1.3-1-2.7-1.8-3.7L371.5,570.9z"/>
		<path d="M377.2,562.1l2.5,0.2c0,0.3-0.2,0.4-0.7,0.5v11.6c0,0.2-0.8,0.6-1.5,0.6h-0.3V562.1z M378.6,560c5,0.6,3.8,4.3,1.9,3.2
			c-0.3-1.1-1.2-2.3-2-3.1L378.6,560z M390.6,562c-0.1,0.1-0.3,0.3-0.7,0.3v10.5c0,1.3-0.3,2-2.6,2.2c0-0.6-0.2-1-0.5-1.3
			c-0.3-0.3-0.7-0.5-1.7-0.7v-0.2c0,0,2,0.1,2.5,0.1c0.3,0,0.4-0.1,0.4-0.4V562h-5.2l-0.1-0.5h5.2l0.9-1L390.6,562z"/>
		<path d="M392.1,563.9c4.3,0.2,3.1,3.5,1.4,2.4c-0.2-0.8-0.9-1.8-1.5-2.3L392.1,563.9z M397.1,563.5c-0.7,1.8-1.8,5.2-2.1,6.1
			c-0.1,0.5-0.3,1.1-0.3,1.5c0,0.8,0.7,1.4,0.6,2.8c0,0.8-0.6,1.3-1.4,1.3c-0.4,0-0.7-0.2-0.9-0.8c0.3-1.7,0.2-3.1-0.1-3.4
			c-0.2-0.2-0.5-0.2-0.8-0.3v-0.3h0.8c0.2,0,0.3,0,0.5-0.3c0.4-0.6,0.4-0.6,3.4-6.7L397.1,563.5z M393.3,560.4
			c4.5,0.2,3.3,3.5,1.6,2.6c-0.3-0.9-1.1-1.9-1.7-2.4L393.3,560.4z M405.4,564c0,0,1.1,0.9,1.8,1.6c0,0.2-0.2,0.3-0.4,0.3h-4.2v3.1
			h1.3l0.9-1l1.8,1.4c-0.1,0.1-0.3,0.3-0.7,0.3v4.8c0,0.1-0.9,0.5-1.6,0.5h-0.3v-1.3h-4.9v0.8c0,0.2-0.8,0.6-1.6,0.6h-0.2v-6.9
			l1.9,0.8h1.3v-3.1h-4l-0.1-0.5h4.2v-2.7c-1.3,0.1-2.7,0.2-3.9,0.3l0-0.2c2.7-0.5,6.1-1.6,7.9-2.4l1.9,1.8c-0.2,0.1-0.6,0.2-1.1,0
			c-0.8,0.2-1.8,0.3-2.9,0.4v2.9h1.8L405.4,564z M399.2,569.4v3.8h4.9v-3.8H399.2z"/>
		<path d="M412.8,568c3.9,2.5,2.1,5.8,0.6,4.2c0-0.3,0-0.6,0-0.9c-1,0.5-2.4,1.1-3.9,1.7c-0.1,0.2-0.3,0.3-0.4,0.4l-1-2.4
			c0,0,0.4-0.1,0.6-0.2c0.7-0.8,1.7-3.4,2-4.8h-2.5l-0.1-0.5h5.3l1-1.2c0,0,1.1,0.8,1.7,1.5c0,0.2-0.2,0.3-0.4,0.3h-4.7l2.3,0.7
			c-0.1,0.2-0.2,0.3-0.5,0.3c-0.8,1.3-2.2,3-3.3,4.1c1-0.1,2.5-0.2,4-0.4c-0.1-0.9-0.4-1.8-0.7-2.6L412.8,568z M408.8,562.5
			l-0.1-0.5h3.8l1-1.3c0,0,1.1,0.9,1.7,1.5c0,0.2-0.2,0.3-0.4,0.3H408.8z M423.2,564.5c-0.1,0.1-0.3,0.2-0.7,0.3
			c-0.1,6.2-0.4,8.6-1.3,9.4c-0.5,0.5-1.2,0.8-2.1,0.8c0-0.6,0-1-0.2-1.2c-0.2-0.3-0.7-0.5-1.3-0.6l0-0.2c0.5,0,1.3,0.1,1.6,0.1
			c0.3,0,0.4,0,0.5-0.2c0.5-0.5,0.7-3.1,0.9-8.3h-2c-0.1,4.7-0.9,8.3-5.6,10.6l-0.2-0.2c3.3-2.7,3.9-6,3.9-10.4h-2l-0.1-0.5h2.1
			c0-1.2,0-2.5,0-3.9l2.5,0.2c0,0.2-0.2,0.4-0.6,0.5c0,1.1,0,2.2,0,3.2h1.8l1-1L423.2,564.5z"/>
	</g>
	<g>
		<path d="M366.1,610.2c-0.6,0.7-1.7,2-3.1,3.4c-0.1,0.4-0.4,0.6-0.5,0.8l-1.3-2c0.7-0.4,0.8-0.5,0.8-0.9v-6.6h-1.8l-0.1-0.5h2
			l0.8-0.8l1.6,1.3c-0.1,0.1-0.3,0.2-0.7,0.3v6.1c0.7-0.4,1.5-0.8,2.3-1.2L366.1,610.2z M360.8,600.2c4.9,0.5,3.9,4,2,3.1
			c-0.4-1-1.4-2.2-2.2-3L360.8,600.2z M374.1,607.9c-0.1,0.2-0.3,0.2-0.7,0.3c-0.6,1.4-1.5,2.7-2.7,3.7c1.3,0.6,2.8,1,4.5,1.2l0,0.2
			c-0.9,0.2-1.4,0.8-1.7,1.8c-1.7-0.5-3.1-1.2-4.2-2.1c-1.5,1-3.4,1.7-5.7,2.1l-0.1-0.2c2-0.7,3.6-1.6,4.9-2.8
			c-0.9-1.1-1.6-2.5-2.1-4.3h-1.1l-0.1-0.4h6.1l1.1-1L374.1,607.9z M374.4,604.6c0.4,0.2,0.6,0.4,0.6,0.7c0,0.7-0.6,1.1-2.3,1.1
			h-0.9c-1.3,0-1.4-0.4-1.4-1.5v-3.2h-2.2v0.8c0,1.4-0.4,3.7-3.8,4.9l-0.1-0.2c1.9-1.4,2.1-3.2,2.1-4.7v-2l2,0.7h1.8l0.9-1l1.6,1.3
			c-0.1,0.1-0.3,0.2-0.6,0.2v2.6c0,0.2,0,0.2,0.3,0.2h0.5h0.5c0.1,0,0.3,0,0.4,0c0.1,0,0.3,0,0.4-0.1L374.4,604.6L374.4,604.6z
			 M366.6,607.8c0.6,1.5,1.5,2.5,2.7,3.3c0.9-1,1.5-2.1,2-3.3H366.6z"/>
		<path d="M380.2,611.5c0.8-0.3,1.7-0.7,2.6-1.1l0.1,0.2c-0.7,0.7-1.9,1.9-3.5,3.2c-0.1,0.3-0.3,0.5-0.5,0.7l-1.3-2
			c0.7-0.4,0.8-0.5,0.8-0.9v-6.6h-2.2l-0.1-0.5h2.4l0.8-0.8l1.6,1.3c-0.1,0.1-0.3,0.2-0.6,0.3V611.5z M377.6,600.2
			c4.8,0.6,3.7,4.1,1.9,3c-0.4-1-1.3-2.2-2-2.9L377.6,600.2z M389.3,604.6c0,0,1.2,0.9,1.9,1.6c0,0.2-0.2,0.3-0.5,0.3h-3.8v7.9
			c0,0.2-0.8,0.7-1.6,0.7h-0.4v-8.6h-3.6l-0.1-0.5h3.7v-5.8l2.5,0.3c0,0.2-0.1,0.4-0.6,0.4v5.1h1.4L389.3,604.6z"/>
		<path d="M400.2,605.3c0.6,3,2.4,5.9,6.9,7.7l0,0.2c-1,0.2-1.6,0.8-1.7,1.9c-3.7-2.3-4.9-6.2-5.4-9.4c-0.5,3.8-2.1,7.1-7.9,9.4
			l-0.1-0.2c4.5-2.7,5.7-5.9,6.1-9.5h-5.8l-0.1-0.5h5.9c0.1-1.5,0.1-3.1,0.1-4.8l2.7,0.3c0,0.2-0.2,0.4-0.6,0.5c0,1.4,0,2.8-0.2,4
			h3.6l1.2-1.5c0,0,1.3,1,2.1,1.7c0,0.2-0.2,0.3-0.5,0.3H400.2z"/>
		<path d="M417.9,607.4c1.2,1,3.4,1.6,5.1,1.8v0.2c-0.7,0.2-1.1,0.8-1.2,1.6c-0.8-0.3-1.7-0.8-2.4-1.3v2.5c0,0.1-0.9,0.4-1.5,0.4
			h-0.3v-3.3H413v3.2c0,0.1-0.8,0.5-1.5,0.5h-0.3v-3.2c-1,0.6-2.1,1-3.2,1.3l-0.1-0.2c1.6-0.9,3.1-2.2,3.8-3.6h-3.1l-0.1-0.5h3.9
			v-1.2h-1.8l-0.1-0.5h2v-1.2h-2.1l-0.1-0.4h2.2v-1.3l2.2,0.2c0,0.2-0.1,0.3-0.4,0.4v0.7h2.2v-1.2l2.3,0.2c0,0.2-0.1,0.3-0.4,0.4
			v0.6h0.6l0.8-0.9c0,0,0.6,0.4,1.1,0.8c0.1-0.4,0.1-0.9,0.1-1.3h-10.7c0.1,1-0.2,1.7-0.7,2c-0.5,0.3-1.2,0.1-1.3-0.4
			c-0.2-0.5,0.2-0.9,0.6-1.1c0.5-0.3,0.9-0.9,0.8-1.6l0.2,0c0.1,0.3,0.2,0.5,0.3,0.8h5.1c-0.1,0-0.2-0.1-0.3-0.1
			c-0.1-0.6-0.6-1.3-0.9-1.7l0.1-0.1c3-0.1,2.8,1.5,1.9,1.9h4.8l0.9-0.9l1.6,1.5c-0.1,0.1-0.3,0.2-0.6,0.2c-0.4,0.4-1.1,0.9-1.6,1.2
			l0.1,0.1c0,0.2-0.2,0.3-0.4,0.3h-2.4v1.2h0.5l0.7-0.8c0,0,0.8,0.6,1.3,1c0,0.2-0.2,0.3-0.4,0.3h-2.1v1.2h1.7l0.8-1
			c0,0,1,0.7,1.6,1.2c0,0.2-0.2,0.3-0.4,0.3H417.9z M416.9,610.2c0,0.2-0.2,0.4-0.6,0.3c-0.1,0.7-0.3,1.3-0.7,1.8
			c8.9,0.4,5.9,3.7,4.2,2.5c-0.8-0.7-2.3-1.6-4.4-2.2c-0.9,1-2.6,1.9-6.6,2.4l-0.1-0.3c5.2-1.3,5.7-2.8,5.8-5.1L416.9,610.2z
			 M418,608.2c-0.2-0.2-0.4-0.5-0.5-0.8h-3.4c-0.3,0.4-0.8,0.9-1.2,1.2l0.2,0.1h4.5L418,608.2z M414.2,605.3h2.2v-1.2h-2.2V605.3z
			 M414.2,607h2.2v-1.2h-2.2V607z"/>
	</g>
	<g>
		<g>
			
				<rect x="114.9" y="482.3" transform="matrix(0.6135 -0.7897 0.7897 0.6135 -365.8501 365.0295)" style="&st31;" width="150.2" height="148"/>
		</g>
	</g>
	<g style="&st16;">
		<g style="&st19;">
			<g style="&st17;">
				<rect x="140" y="440" style="&st12;" width="20" height="20"/>
			</g>
			<rect x="141.7" y="441.7" style="&st20;" width="16.7" height="16.7"/>
			<circle style="&st20;" cx="150" cy="450" r="8.8"/>
		</g>
		<polygon style="&st32;" points="142.1,442.9 142.1,455.4 145.4,455.4 145.4,457.9 149.2,455.4 157.9,455.4 157.9,442.9 		"/>
		<polygon style="&st18;" points="142.1,442.9 142.1,455.4 145.4,455.4 145.4,457.9 149.2,455.4 157.9,455.4 157.9,442.9 		"/>
		<circle style="&st8;" cx="145.5" cy="449.1" r="0.9"/>
		<circle style="&st8;" cx="150" cy="449.1" r="0.9"/>
		<circle style="&st8;" cx="154.5" cy="449.1" r="0.9"/>
	</g>
	<g>
		<g style="&st19;">
			<rect x="280" y="440" style="&st20;" width="12" height="12"/>
			<rect x="281" y="441" style="&st20;" width="10" height="10"/>
			<circle style="&st20;" cx="286" cy="446" r="5.2"/>
		</g>
		<g>
			<line style="&st23;" x1="286" y1="451" x2="290.2" y2="446.8"/>
			<line style="&st23;" x1="286" y1="441" x2="286" y2="451"/>
			<g>
				<defs>
					
						<rect id="SVGID_5_" x="280.2" y="446.8" transform="matrix(6.123234e-17 -1 1 6.123234e-17 -165.75 731.5)" width="5.2" height="3.8"/>
				</defs>
				<clipPath id="SVGID_6_">
					<use xlink:href="#SVGID_5_"  style="overflow:visible;"/>
				</clipPath>
				<line style="&st33;" x1="285.2" y1="450.2" x2="281.8" y2="446.8"/>
			</g>
		</g>
	</g>
	<g>
		<g>
			<path d="M573.4,72.7c0,0,1.2,0.9,1.9,1.5c0,0.2-0.2,0.3-0.5,0.3h-14.7L560,74h12.3L573.4,72.7z M560.2,67.6
				c2.1-1.1,4-2.8,5.1-4.5h-4.5l-0.1-0.5h5.9V60l2.5,0.2c0,0.2-0.2,0.4-0.6,0.5v1.9h3.5l1-1.3c0,0,1.2,0.9,1.9,1.5
				c0,0.2-0.2,0.3-0.5,0.3h-5.9v0.3c6.8,0.9,6.5,4.6,4.4,4c-1-1.2-2.9-2.6-4.4-3.5v2.9c0,0.2-0.8,0.5-1.6,0.5h-0.3v-2.9
				c-1.5,1.5-3.8,2.6-6.3,3.4L560.2,67.6z M570.3,73.3v-0.8h-5.4v0.4c0,0.2-0.8,0.6-1.6,0.6H563v-6.7l2,0.8h5.1l0.9-0.9l1.8,1.4
				c-0.1,0.1-0.3,0.2-0.6,0.3v4.3c0,0.2-0.9,0.6-1.6,0.6H570.3z M564.9,68v1.8h5.4V68H564.9z M570.3,72v-1.7h-5.4V72H570.3z"/>
			<path d="M589.6,64.5c0,0,1.2,0.9,1.9,1.5c0,0.2-0.2,0.3-0.5,0.3h-8.6c-0.2,0.4-0.5,0.7-0.7,1l0.6,0.2h5l0.9-0.9l1.8,1.4
				c-0.1,0.1-0.3,0.2-0.6,0.3v6.6c0,0.1-1,0.5-1.6,0.5h-0.3v-1.2h-5.3v0.6c0,0.1-0.6,0.6-1.5,0.6h-0.3V69c-1.1,1-2.3,1.9-3.8,2.6
				l-0.2-0.2c1.9-1.3,3.3-3.1,4.4-5.1h-4l-0.1-0.5h4.4c0.2-0.5,0.5-1,0.6-1.5h-3.7l-0.1-0.5h4c0.2-0.5,0.3-1,0.4-1.4
				c-1.6,0.1-3.2,0.1-4.8,0.1l0-0.3c3.8-0.4,8.7-1.3,11.3-2.1l1.7,1.7c-0.2,0.1-0.5,0.1-1-0.1c-1.4,0.2-3.1,0.4-5,0.5
				c-0.1,0.5-0.3,1.1-0.5,1.6h3.9l1-1.2c0,0,1.2,0.8,1.9,1.5c0,0.2-0.2,0.3-0.4,0.3h-6.5c-0.2,0.5-0.5,1-0.8,1.5h5.9L589.6,64.5z
				 M582.1,68v1.5h5.3V68H582.1z M587.5,69.9h-5.3v1.6h5.3V69.9z M587.5,73.7V72h-5.3v1.7H587.5z"/>
			<path d="M601.1,69.2c-0.2,1.1-0.5,2.1-1.2,3c2.2,0.8,5,1.1,7.9,1v0.2c-0.8,0.3-1.3,0.9-1.4,1.8c-3-0.3-5.5-0.9-7.4-2.2
				c-1.3,1-3.2,1.8-6.2,2.3l-0.1-0.2c2.6-0.8,4.3-1.8,5.2-2.9c-0.6-0.6-1.1-1.3-1.5-2.1l0.2-0.2c0.5,0.6,1,1.2,1.8,1.6
				c0.4-0.7,0.6-1.5,0.8-2.3h-2.5v0.4c0,0.2-0.8,0.6-1.6,0.6h-0.3V63l2,0.8h2.5V62h-6.2l-0.1-0.5h11.4l1.1-1.4c0,0,1.3,0.9,2.1,1.6
				c0,0.2-0.2,0.3-0.5,0.3h-5.9v1.8h2.5l0.9-1l1.8,1.4c-0.1,0.1-0.3,0.3-0.6,0.3v5.1c0,0.1-1,0.5-1.6,0.5h-0.3v-0.9H601.1z
				 M596.7,64.3v2h2.6v-2H596.7z M599.2,68.8c0-0.4,0-0.8,0-1.3v-0.8h-2.6v2.1H599.2z M603.9,68.8v-2.1h-2.7v0.7c0,0.5,0,0.9,0,1.3
				H603.9z M601.2,64.3v2h2.7v-2H601.2z"/>
			<path d="M624,68.8c-0.1,0.2-0.4,0.2-0.9,0.3c-2.7,3.7-6.9,5.7-14,6.2l-0.1-0.2c5.5-1.2,9.4-3,11.8-6.4h-3.7c-0.5,0.3-1,0.7-1.6,1
				c3,0.6,2,3.2,0.4,2.3c-0.2-0.7-0.7-1.4-1.2-1.9c-1.3,0.6-2.6,1.2-4.1,1.5l-0.1-0.2c2.3-1.1,4.3-2.8,5.6-4.3
				c-1.8,0.7-3.9,1.3-6.4,1.6l-0.1-0.2c4.5-1.3,8-3.2,10.2-6h-4.2c-0.4,0.3-0.9,0.6-1.4,0.9c3.2,0.3,2.3,3,0.7,2.2
				c-0.2-0.6-0.8-1.3-1.3-1.8c-1,0.6-2.2,1-3.4,1.4l-0.1-0.2c2.3-1.3,4.4-3.4,5.3-5l2.9,0.7c-0.1,0.2-0.3,0.3-0.8,0.3
				c-0.3,0.3-0.7,0.7-1.2,1h3.8l1.1-1l1.9,1.6c-0.1,0.2-0.4,0.2-0.8,0.2c-1.2,1.5-2.7,2.6-4.5,3.6l2.1,0.5c-0.1,0.2-0.3,0.3-0.9,0.3
				c-0.3,0.3-0.6,0.5-0.9,0.8h3.2l1.1-1L624,68.8z"/>
		</g>
	</g>
	<g>
		<g>
			<path style="&st28;" d="M719.9,79.6c0.4,0.2,0.5,0.3,0.5,0.5c0,0.5-0.6,0.8-3,0.8h-1.6c-1.3,0-1.7-0.3-1.7-1.2v-6.2
				c-0.5,0.4-1,0.9-1.5,1.2l-0.2-0.1c1.6-1.6,2.9-4.2,3.5-6l1.8,0.8c-0.1,0.2-0.2,0.2-0.5,0.2v0c4.3,1.5,3.4,4.3,2,3.4
				c-0.3-1-1.3-2.2-2.2-3.1c-0.5,1-1.3,2.1-2.3,3.1l0.8,0.4h2.3l0.7-0.6l1.2,1c-0.1,0.1-0.3,0.2-0.5,0.2c0,2.5-0.1,3.4-0.5,3.8
				c-0.3,0.3-0.8,0.4-1.3,0.4c0-0.3,0-0.6-0.2-0.8c-0.2-0.2-0.5-0.3-0.9-0.4l0-0.2c0.4,0,1,0.1,1.2,0.1c0.2,0,0.3,0,0.4-0.1
				c0.2-0.2,0.2-1.1,0.2-2.9h-2.6v5.8c0,0.3,0.1,0.4,0.7,0.4h1.4c0.6,0,1.1,0,1.3,0c0.2,0,0.3-0.1,0.4-0.2c0.1-0.3,0.4-1.1,0.6-2
				h0.2L719.9,79.6z M722.2,77.9c0,0.1-0.5,0.4-1,0.4H721v-8l1.7,0.2c0,0.2-0.1,0.3-0.5,0.4V77.9z M725.5,68.7
				c0,0.2-0.2,0.3-0.5,0.4v10.8c0,0.9-0.2,1.5-1.8,1.7c0-0.4-0.1-0.7-0.3-0.9c-0.2-0.2-0.5-0.4-1.2-0.5v-0.2c0,0,1.5,0.1,1.8,0.1
				c0.2,0,0.3-0.1,0.3-0.3V68.5L725.5,68.7z"/>
			<path style="&st28;" d="M731.6,74.3c-0.1,0.1-0.2,0.2-0.5,0.2c-0.2,1.5-0.6,2.9-1.3,4.1c1.5,1,3.6,1.2,6.6,1.2c0.8,0,2.5,0,3.4,0
				V80c-0.5,0.1-0.8,0.6-0.8,1.1h-2.6c-3.2,0-5.4-0.4-6.9-1.8c-0.6,0.8-1.5,1.6-2.6,2.1l-0.1-0.2c1-0.7,1.7-1.6,2.2-2.6
				c-0.6-0.8-1.2-1.9-1.6-3.4l0.2-0.1c0.4,1.2,1,2.2,1.7,2.8c0.5-1.1,0.7-2.4,0.8-3.7h-1.1l-0.5,0.4L727,74c0.1-0.1,0.3-0.2,0.5-0.3
				c0.5-0.9,1.3-2.5,1.7-3.5h-2.4l-0.1-0.4h2.5l0.6-0.6l1.2,1.1c-0.1,0.1-0.4,0.2-0.6,0.2c-0.4,0.9-1.1,2.4-1.6,3.4h0.9l0.7-0.7
				L731.6,74.3z M738.8,70.9c0,0,0.7,0.7,1.1,1.1c0,0.2-0.2,0.2-0.4,0.2H738v2c0,0.1-0.6,0.4-1,0.4h-0.2v-0.5h-1.6v1.4h1.6l0.7-0.9
				c0,0,0.8,0.6,1.3,1.1c0,0.2-0.2,0.2-0.4,0.2h-3.2v1.5h2.1l0.8-1c0,0,0.9,0.7,1.5,1.2c0,0.2-0.2,0.2-0.4,0.2h-3.9v1.4
				c0,0.1-0.5,0.4-1,0.4h-0.3v-1.8h-3.1l-0.1-0.4h3.2V76h-2.4l-0.1-0.4h2.5v-1.4h-2.2l-0.1-0.4h2.4v-1.4h-3.3l-0.1-0.4h3.4v-1.4
				h-2.3l-0.1-0.4h2.5v-1.5l1.8,0.2c0,0.2-0.1,0.3-0.5,0.4v1h1.5l0.6-0.7l1.3,1c-0.1,0.1-0.3,0.2-0.6,0.3v1.2h0.2L738.8,70.9z
				 M735.2,71.9h1.6v-1.4h-1.6V71.9z M736.7,72.3h-1.6v1.4h1.6V72.3z"/>
			<path style="&st28;" d="M745.8,69.2c-0.1,0.2-0.3,0.3-0.6,0.3c-0.5,1.1-1,2.2-1.6,3.1l0.7,0.3c0,0.1-0.2,0.2-0.4,0.3v8.1
				c0,0.1-0.6,0.4-1.1,0.4h-0.2V74c-0.6,0.7-1.2,1.4-1.9,1.9l-0.2-0.1c1.3-1.7,2.6-4.5,3.3-7.3L745.8,69.2z M749.5,71.8v2.6h1.6
				l0.8-1c0,0,0.9,0.7,1.4,1.2c0,0.2-0.2,0.2-0.4,0.2h-3.3v2.6h1.7l0.8-1c0,0,0.9,0.7,1.5,1.2c0,0.2-0.2,0.2-0.4,0.2h-3.6v3.3
				c0,0.1-0.4,0.4-1.1,0.4h-0.2v-9.7h-0.7c-0.9,1.3-1.8,2.4-2.9,3.3l-0.2-0.1c1.1-1.5,2.3-4,3-6.5l1.9,0.7c-0.1,0.2-0.2,0.3-0.5,0.3
				c-0.3,0.7-0.7,1.4-1,2h3.8l0.8-1c0,0,0.9,0.7,1.5,1.2c0,0.2-0.2,0.2-0.4,0.2H749.5z"/>
			<path style="&st28;" d="M759.6,74.9l1.4,1.1c-0.1,0.1-0.3,0.2-0.6,0.3v4.6c0,0.1-0.6,0.4-1.1,0.4h-0.2v-1.1h-2.4V81
				c0,0.1-0.5,0.4-1.1,0.4h-0.2V75l1.4,0.5h2.2L759.6,74.9z M759.1,79.7V76h-2.4v3.7H759.1z M758.9,74.2c0,0.1-0.6,0.4-1.1,0.4h-0.2
				v-5.8l1.4,0.6h4.3l0.7-0.7l1.4,1.1c-0.1,0.1-0.3,0.2-0.6,0.3v4.1c0,0.1-0.7,0.4-1.1,0.4h-0.2v-1.1h-4.5V74.2z M758.9,69.8v3.2
				h4.5v-3.2H758.9z M767.6,75.9c-0.1,0.1-0.3,0.2-0.6,0.3v4.7c0,0.1-0.7,0.4-1.1,0.4h-0.2v-1.2h-2.5v1c0,0.1-0.5,0.4-1.1,0.4h-0.2
				V75l1.3,0.5h2.3l0.7-0.7L767.6,75.9z M765.7,79.7V76h-2.5v3.7H765.7z"/>
		</g>
		<rect x="700" y="60" style="&st12;" width="80" height="30"/>
	</g>
	<g>
		<path d="M526.2,6.4c-0.5,0.4-1.2,0.9-2.1,1.4v5.1c0,1.3-0.3,2-2.2,2.1c0-0.6-0.1-1-0.3-1.3c-0.2-0.3-0.5-0.5-1.2-0.6V13
			c0,0,1.3,0.1,1.6,0.1c0.2,0,0.3-0.1,0.3-0.3V8.9c-0.4,0.2-0.7,0.4-1.1,0.7c-0.1,0.2-0.2,0.4-0.4,0.5L520,7.8
			c0.5-0.1,1.3-0.3,2.3-0.5v-3h-1.9l-0.1-0.5h2.1V0l2.4,0.2c0,0.2-0.2,0.4-0.6,0.4v3.1h0.1l0.8-1.2c0,0,0.9,0.9,1.4,1.5
			c0,0.2-0.2,0.3-0.4,0.3h-1.9v2.5c0.7-0.2,1.4-0.4,2.1-0.6L526.2,6.4z M535.3,1.6c-0.1,0.1-0.3,0.2-0.6,0.3
			c-0.1,3.2-0.4,4.6-1.1,5.2c-0.5,0.4-1.1,0.5-1.9,0.5c0-0.5,0-1-0.3-1.2c-0.2-0.3-0.7-0.5-1.3-0.6l0-0.2c0.5,0,1.4,0.1,1.7,0.1
			c0.2,0,0.4,0,0.5-0.1c0.3-0.3,0.5-1.6,0.6-4h-2.2c-0.5,3-1.9,5.2-5,6.4l-0.1-0.2c2.1-1.6,2.9-3.8,3.1-6.2h-2.4L526,1.1h6.7
			l0.9-0.9L535.3,1.6z M533.1,7.8l1.8,1.4c-0.1,0.1-0.3,0.3-0.6,0.3v5.1c0,0.1-0.9,0.4-1.5,0.4h-0.3v-1.2h-4.1v0.7
			c0,0.2-0.8,0.6-1.5,0.6h-0.3V8l1.9,0.8h3.9L533.1,7.8z M532.4,13.3V9.2h-4.1v4.2H532.4z"/>
		<path d="M546.6,9.3c1.3,0.6,3.2,0.8,4.7,0.9l0,0.2c-0.6,0.2-1,0.8-1.1,1.6c-0.7-0.2-1.5-0.5-2.1-0.9l0.4,0.3
			c-0.1,0.1-0.3,0.2-0.6,0.3c-0.2,1.5-0.6,2.5-1.3,2.9c-0.4,0.3-1,0.4-1.8,0.4c0-0.5,0-0.9-0.3-1.1c-0.3-0.3-0.8-0.4-1.4-0.6v-0.2
			c0.6,0.1,1.7,0.1,2,0.1c0.2,0,0.4,0,0.5-0.1c0.2-0.2,0.4-0.8,0.6-1.8h-2.2c-0.8,1.6-2.6,2.9-6.4,3.6l-0.1-0.2
			c2.6-0.9,4-2.1,4.6-3.4h-2.3l-0.1-0.3c-0.9,0.4-2,0.8-3.3,1l-0.1-0.2c1.7-0.7,3-1.6,4-2.6h-3.4l-0.1-0.5h4
			c0.4-0.4,0.7-0.9,0.9-1.3h-0.7v0.1c0,0.2-0.8,0.6-1.6,0.6H539V2.8l0.3,0.1l-0.1-1h-2.7l-0.1-0.4h2.8L539,0l2.4,0.2
			c0,0.2-0.1,0.4-0.4,0.4l0.1,0.9h0.5l0.8-1.2c0,0,1,0.8,1.5,1.4c0,0.2-0.2,0.3-0.4,0.3h-2.4l0.1,0.7c-0.2,0.3-0.7,0.4-1.4,0.5
			l1.2,0.5h5.5l0.5-0.6c-0.4,0.1-0.8,0.1-1.2,0l0.2-1.1h-1.6l-0.1-0.4h1.8l0.3-1.5l2.3,0.4c0,0.2-0.2,0.4-0.6,0.4l-0.1,0.7h0.9
			l0.8-1.2c0,0,0.9,0.8,1.5,1.4c0,0.2-0.2,0.3-0.4,0.3h-2.9l-0.2,0.8c0,0-0.1,0-0.1,0.1L549,4c-0.1,0.1-0.3,0.3-0.6,0.3v3.2
			c0,0.1-0.9,0.5-1.5,0.5h-0.3V7.5h-4.1l1.7,0.5c-0.1,0.2-0.3,0.3-0.8,0.3c-0.1,0.2-0.3,0.4-0.5,0.5h5.4l1-1.2c0,0,1.1,0.8,1.7,1.4
			c0,0.2-0.2,0.3-0.4,0.3H546.6z M546.8,10.2c-0.4-0.3-0.7-0.6-0.9-1h-3.4c-0.7,0.6-1.5,1.2-2.5,1.7h2.2c0.2-0.5,0.3-1,0.3-1.5
			l2.5,0.4c-0.1,0.2-0.3,0.4-0.6,0.4c-0.1,0.3-0.1,0.5-0.2,0.7h1.9L546.8,10.2z M540.8,4.1v1.2h5.7V4.1H540.8z M540.8,7h5.7V5.8
			h-5.7V7z"/>
	</g>
	<g>
		<path d="M280.1,3.8c4.3,0.2,3.1,3.5,1.4,2.4c-0.2-0.8-0.9-1.8-1.5-2.3L280.1,3.8z M285.2,3.4c-0.7,1.8-1.8,5.3-2.1,6.1
			c-0.1,0.5-0.3,1.1-0.3,1.5c0,0.8,0.7,1.4,0.6,2.8c0,0.8-0.6,1.3-1.4,1.3c-0.4,0-0.7-0.2-0.9-0.8c0.3-1.7,0.2-3.1-0.1-3.4
			c-0.2-0.2-0.5-0.2-0.8-0.3v-0.3h0.8c0.2,0,0.3,0,0.5-0.3c0.4-0.6,0.4-0.6,3.4-6.7L285.2,3.4z M281.3,0.3c4.5,0.2,3.3,3.5,1.6,2.6
			c-0.3-0.9-1.1-1.9-1.7-2.4L281.3,0.3z M293.4,3.9c0,0,1.1,0.9,1.8,1.6c0,0.2-0.2,0.3-0.4,0.3h-4.2v3.1h1.3l0.9-1l1.8,1.4
			c-0.1,0.1-0.3,0.3-0.7,0.3v4.8c0,0.1-0.9,0.5-1.6,0.5h-0.3v-1.3h-4.8v0.8c0,0.2-0.8,0.6-1.6,0.6h-0.2V8l1.9,0.8h1.3V5.7h-4
			l-0.1-0.5h4.2V2.5c-1.3,0.1-2.7,0.2-3.9,0.3l0-0.2c2.7-0.5,6.1-1.6,7.9-2.4l1.9,1.8c-0.2,0.1-0.6,0.2-1.1,0
			c-0.8,0.2-1.8,0.3-2.9,0.4v2.9h1.8L293.4,3.9z M287.3,9.3v3.8h4.8V9.3H287.3z"/>
		<path d="M300.8,7.9c3.9,2.5,2.1,5.8,0.6,4.2c0-0.3,0-0.6,0-0.9c-1,0.5-2.4,1.1-3.9,1.7c-0.1,0.2-0.3,0.3-0.4,0.4l-1-2.4
			c0,0,0.4-0.1,0.6-0.2c0.7-0.8,1.7-3.4,2-4.8h-2.5L296,5.5h5.3l1-1.2c0,0,1.1,0.8,1.7,1.5c0,0.2-0.2,0.3-0.4,0.3h-4.7l2.3,0.7
			c-0.1,0.2-0.2,0.3-0.5,0.3c-0.8,1.3-2.2,3-3.3,4.1c1-0.1,2.5-0.2,4-0.4c-0.1-0.9-0.4-1.8-0.7-2.6L300.8,7.9z M296.8,2.4L296.7,2
			h3.8l1-1.3c0,0,1.1,0.9,1.7,1.5c0,0.2-0.2,0.3-0.4,0.3H296.8z M311.2,4.4c-0.1,0.1-0.3,0.2-0.7,0.3c-0.1,6.2-0.4,8.6-1.3,9.4
			c-0.5,0.5-1.2,0.8-2.1,0.8c0-0.6,0-1-0.2-1.2c-0.2-0.3-0.7-0.5-1.3-0.6l0-0.2c0.5,0,1.3,0.1,1.6,0.1c0.3,0,0.4,0,0.5-0.2
			c0.5-0.5,0.7-3.1,0.9-8.3h-2c-0.1,4.7-0.9,8.3-5.6,10.6l-0.2-0.2c3.3-2.7,3.9-6,3.9-10.4h-2l-0.1-0.5h2.1c0-1.2,0-2.5,0-3.9
			l2.5,0.2c0,0.2-0.2,0.4-0.6,0.5c0,1.1,0,2.2,0,3.2h1.8l1-1L311.2,4.4z"/>
	</g>
	<g>
		<g>
			<path style="&st28;" d="M480.1,567.1L480,567c2.5-1.7,4.7-4.6,5.5-7l2.1,0.6c-0.1,0.2-0.2,0.3-0.6,0.3c1.3,1.9,3.6,3.5,6.2,4.5
				l0,0.2c-0.6,0.2-0.9,0.7-1.1,1.3c-2.4-1.3-4.3-3.4-5.3-5.8C485.6,563.2,483.1,565.8,480.1,567.1z M487.8,564.3
				c0,0.2-0.2,0.4-0.5,0.4v8c0,0.1-0.6,0.4-1.2,0.4h-0.3v-9L487.8,564.3z"/>
			<path style="&st28;" d="M501.3,560.5c0,0.2-0.1,0.3-0.5,0.4c0.3,5.3,1.6,8.7,6.4,10.7l0,0.2c-0.7,0.1-1.1,0.5-1.3,1.3
				c-3.6-2-4.8-5.2-5.2-9.6c-0.3,3.5-1.3,7.1-6.4,9.7l-0.2-0.2c5.3-3.6,5.2-8.2,5.2-12.5L501.3,560.5z"/>
			<path style="&st28;" d="M513.3,569c-0.5,0.6-1.5,1.7-2.7,2.8c-0.1,0.3-0.3,0.5-0.4,0.6l-0.9-1.5c0.5-0.3,0.6-0.4,0.6-0.7v-6h-1.6
				l-0.1-0.4h1.8l0.6-0.6l1.2,1c-0.1,0.1-0.2,0.2-0.5,0.3v5.6c0.6-0.4,1.4-0.8,2.1-1.2L513.3,569z M508.9,560.1
				c3.9,0.8,3.1,3.4,1.8,2.7c-0.3-0.9-1.2-1.9-1.9-2.6L508.9,560.1z M520.2,566.8c-0.1,0.1-0.3,0.2-0.6,0.2
				c-0.6,1.3-1.4,2.4-2.5,3.4c1.2,0.6,2.6,1,4.1,1.3l0,0.2c-0.6,0.1-1.1,0.6-1.2,1.2c-1.6-0.4-2.8-1.1-3.9-1.9c-1.3,0.9-3,1.5-5,1.9
				l-0.1-0.2c1.8-0.6,3.2-1.4,4.4-2.4c-0.9-0.9-1.5-2.2-1.9-3.7h-0.9l-0.1-0.4h5.5l0.8-0.8L520.2,566.8z M515,562.1
				c0,1.3-0.3,3.1-3.1,4.2l-0.1-0.2c1.7-1.2,2-2.7,2-4v-1.7l1.5,0.6h2l0.7-0.7l1.2,1c-0.1,0.1-0.3,0.2-0.5,0.2v2.5
				c0,0.2,0,0.2,0.3,0.2h0.5c0.2,0,0.4,0,0.5,0c0.1,0,0.2,0,0.3,0c0.1,0,0.2,0,0.3-0.1h0.1l0.1,0c0.3,0.1,0.5,0.3,0.5,0.5
				c0,0.5-0.5,0.8-1.9,0.8h-0.8c-1,0-1.1-0.3-1.1-1.1v-3H515V562.1z M513.9,566.7c0.5,1.3,1.3,2.3,2.4,3c0.8-0.9,1.5-1.9,1.9-3
				H513.9z"/>
			<path style="&st28;" d="M533.7,571.1c0,0,0.9,0.7,1.5,1.2c0,0.2-0.2,0.2-0.4,0.2h-12.5l-0.1-0.4h2.5v-6.8l1.4,0.6h1.5
				c0-0.3,0.1-0.7,0.1-1.1h-5.2l-0.1-0.4h5.4l0.1-1l1.9,0.3c0,0.2-0.2,0.3-0.5,0.4l-0.1,0.4h3.6l0.5-0.6c-0.1,0-0.3,0-0.4,0h-0.2
				v-0.6h-7.7v0.4c0,0.1-0.6,0.4-1.1,0.4h-0.2v-3.8l1.4,0.6h7.5l0.6-0.7l1.4,1c-0.1,0.1-0.3,0.2-0.6,0.3v2.1c0,0-0.1,0.1-0.2,0.1
				c0.3,0.2,0.8,0.6,1.2,1c0,0.2-0.2,0.2-0.4,0.2h-5.6c-0.2,0.4-0.3,0.7-0.5,1.1h2.8l0.6-0.8l1.5,1.1c-0.1,0.1-0.3,0.2-0.6,0.3v5.6
				h0.1L533.7,571.1z M524.8,562.9h1.7v-1.6h-1.7V562.9z M525.9,566.3v1.2h5.4v-1.2H525.9z M531.4,567.9h-5.4v1.1h5.4V567.9z
				 M525.9,569.4v1.1h5.4v-1.1H525.9z M525.9,572.1h5.4v-1.2h-5.4V572.1z M527.8,561.2v1.6h1.8v-1.6H527.8z M532.6,562.9v-1.6h-1.8
				v1.6H532.6z"/>
		</g>
	</g>
	<g>
		<g>
			<path style="&st28;" d="M480.1,603.4c3.5,0.3,2.6,2.8,1.3,2c-0.2-0.7-0.9-1.4-1.4-1.9L480.1,603.4z M484.6,602.1
				c-0.6,1.9-1.8,5.4-2,6.1c-0.1,0.5-0.2,1-0.2,1.3c0,0.7,0.5,1.2,0.5,2.5c0,0.7-0.4,1.1-1,1.1c-0.3,0-0.6-0.2-0.7-0.7
				c0.2-1.4,0.2-2.7-0.2-2.9c-0.2-0.1-0.4-0.2-0.7-0.2V609h0.6c0.2,0,0.3,0,0.4-0.3c0.3-0.5,0.3-0.5,3-6.7L484.6,602.1z
				 M481.3,600.3c3.6,0.4,2.7,3,1.4,2.1c-0.2-0.7-0.9-1.6-1.5-2L481.3,600.3z M491.1,603.8l1.4,1.1c-0.1,0.1-0.3,0.2-0.6,0.3v6.3
				c0,0.9-0.2,1.5-1.7,1.6c0-0.4-0.1-0.7-0.3-0.9c-0.2-0.2-0.5-0.4-1.1-0.4v-0.2c0,0,1.2,0.1,1.5,0.1c0.2,0,0.3-0.1,0.3-0.3v-2.8
				c-1,0.5-2.3,1.1-4,1.8c-0.1,0.2-0.2,0.3-0.3,0.4l-0.6-1.3c-0.3,1.3-0.8,2.7-2.2,3.7l-0.2-0.2c1.2-1.7,1.3-3.9,1.3-5.8v-3.2
				l1.5,0.6h1.7v-4.4l1.8,0.2c0,0.2-0.1,0.3-0.5,0.4v3.9h1.4L491.1,603.8z M484.6,601c3.6,1.1,2.6,3.7,1.4,2.8
				c-0.1-0.9-0.9-2-1.5-2.7L484.6,601z M485.8,607.1c0,0.6,0,1.3-0.1,2c1.1-0.1,3-0.5,4.9-1v-3.3h-4.7v1.4c4.9-0.6,4.8,1.9,3.5,1.7
				c-0.6-0.4-1.9-1-3.5-1.3V607.1z M492.8,601.7c-0.1,0.2-0.2,0.2-0.5,0.2c-0.7,0.6-1.7,1.5-2.6,2.2l-0.2-0.1c0.6-1,1.3-2.4,1.7-3.2
				L492.8,601.7z"/>
			<path style="&st28;" d="M496.1,609c0.5,1.6-0.1,2.8-0.7,3.2c-0.4,0.3-1,0.3-1.1-0.2c-0.1-0.4,0.1-0.7,0.4-0.9
				c0.6-0.3,1.2-1.1,1.2-2.1L496.1,609z M497.7,608.1c0,0.1-0.6,0.4-1.1,0.4h-0.2v-7.5l1.4,0.6h1.6c0.1-0.5,0.3-1.2,0.4-1.7l2.1,0.4
				c-0.1,0.2-0.3,0.3-0.5,0.4c-0.3,0.3-0.7,0.6-1.1,0.9h2.9l0.7-0.7l1.4,1.1c-0.1,0.1-0.3,0.2-0.6,0.3v5.7c0,0.1-0.7,0.4-1.1,0.4
				h-0.2v-0.8h-5.6V608.1z M504,611.3c0.4,0.1,0.5,0.3,0.5,0.5c0,0.6-0.6,0.8-3.4,0.8h-1.9c-1.5,0-1.8-0.2-1.8-1.2v-3.1l1.8,0.2
				c0,0.2-0.2,0.3-0.4,0.4v2.4c0,0.2,0.1,0.3,0.7,0.3h1.8c0.7,0,1.3,0,1.6,0c0.2,0,0.3-0.1,0.4-0.2c0.1-0.2,0.3-0.8,0.6-1.5h0.2
				L504,611.3z M497.7,602.1v1.4h5.6v-1.4H497.7z M503.3,605.3v-1.4h-5.6v1.4H503.3z M503.3,607.2v-1.5h-5.6v1.5H503.3z
				 M499.8,608.2c3.2,1,2.1,3.3,1,2.3c-0.1-0.8-0.6-1.7-1.1-2.2L499.8,608.2z M504,608.9c4,1.1,3,4,1.6,3.1c-0.2-1-1-2.2-1.8-3
				L504,608.9z"/>
			<path style="&st28;" d="M520.7,603.5c-0.1,0.1-0.3,0.2-0.6,0.3v4.7c0,0.1-0.7,0.4-1.2,0.4h-0.2v-1.2h-3.5v4.9
				c0,0.2-0.6,0.5-1.1,0.5h-0.3v-5.4h-3.5v0.9c0,0.1-0.6,0.4-1.2,0.4h-0.2v-6.5l1.5,0.6h3.4v-3l1.9,0.2c0,0.2-0.1,0.4-0.5,0.4v2.4
				h3.4l0.7-0.8L520.7,603.5z M513.8,607.2v-3.7h-3.5v3.7H513.8z M518.7,607.2v-3.7h-3.5v3.7H518.7z"/>
			<path style="&st28;" d="M523.9,604.3c0.9,2.5,0.4,4.3-0.3,5.1c-0.4,0.6-1.1,0.8-1.5,0.4c-0.3-0.3-0.2-0.8,0.1-1.1
				c0.7-0.7,1.4-2.5,1.4-4.4L523.9,604.3z M527.3,602.8c0,0.2-0.2,0.3-0.5,0.4v7.5c0,0.4,0.2,0.5,0.9,0.5h1.8c0.7,0,1.3,0,1.6,0
				c0.2,0,0.3-0.1,0.4-0.3c0.2-0.3,0.4-1.2,0.7-2.3h0.2l0,2.4c0.4,0.2,0.6,0.3,0.6,0.6c0,0.7-0.7,0.9-3.6,0.9h-1.9
				c-1.5,0-2-0.3-2-1.4v-8.4L527.3,602.8z M529.5,604.1c-0.3-1.3-1.2-2.8-2.1-3.8l0.2-0.1C532,602.1,531,605.2,529.5,604.1z
				 M533.7,609.6c-0.2-1.3-0.6-3.4-1.8-4.9l0.1-0.1C536.6,607.5,534.9,611,533.7,609.6z"/>
		</g>
	</g>
	<g>
		<g>
			<path style="&st28;" d="M485.2,646.9c-0.1,0.1-0.2,0.2-0.5,0.2c-0.3,1-1,2.1-2,3c0.1,0,0.1,0.1,0.2,0.1c1.2,1.1,2.8,1.2,5.7,1.2
				c1.6,0,3,0,4.7-0.1v0.2c-0.6,0.1-0.9,0.6-1,1.1H488c-2.9,0-4.2-0.5-5.4-2c-0.2-0.2-0.3-0.2-0.4,0c-0.3,0.4-0.8,1.2-1.1,1.9
				c0,0.1,0,0.2-0.1,0.3l-1-1.3c0.7-0.4,1.8-1.3,2.2-1.5c0.5-0.8,1-2,1.2-3H482l-0.5,0.4l-1.1-0.9c0.1-0.1,0.3-0.2,0.5-0.2
				c0.5-0.7,1.2-1.6,1.6-2.3h-2.3l-0.1-0.4h2.5l0.6-0.6l1.2,1.1c-0.1,0.1-0.4,0.2-0.7,0.2c-0.4,0.6-1.1,1.6-1.6,2.3h1.1l0.7-0.7
				L485.2,646.9z M480.8,640.1c3.6,0.5,2.6,3.1,1.3,2.2c-0.2-0.7-0.8-1.6-1.4-2.1L480.8,640.1z M485,649.7c0.4-0.3,0.5-0.4,0.5-0.7
				v-8.6l1.4,0.5h3l0.6-0.7l1.3,1c-0.1,0.1-0.3,0.2-0.6,0.3v4.1c0,0.1-0.6,0.4-1,0.4H490v-0.5h-3.2v3.8c0.7-0.2,1.5-0.4,2.3-0.6
				l0.1,0.2c-0.6,0.4-1.6,1.1-2.9,1.8c-0.1,0.2-0.2,0.3-0.3,0.3L485,649.7z M486.8,643h3.2v-1.7h-3.2V643z M490,645.1v-1.8h-3.2v1.8
				H490z M492.4,646.8c-0.1,0.1-0.2,0.2-0.5,0.1c-0.4,0.2-1.1,0.6-1.7,0.9c2.4,1.6,1.8,3.3,0.7,2.7c-0.6-1.3-2.4-2.9-3.7-3.9
				l0.1-0.1c1,0.4,1.9,0.7,2.5,1.1c0.4-0.6,0.9-1.3,1.2-1.7L492.4,646.8z"/>
			<path style="&st28;" d="M506.5,647.2c0,0.2-0.1,0.3-0.5,0.4v4.9c0,0.1-0.6,0.3-1.1,0.3h-0.2v-1.1h-8.3l-0.4,0.7l-1.4-0.9
				c0.1-0.1,0.3-0.3,0.4-0.4v-4.2l1.8,0.2c0,0.2-0.2,0.3-0.5,0.3v3.8h3.5v-5.5h-2.7l-0.4,0.7l-1.4-0.9c0.1-0.1,0.3-0.3,0.4-0.4v-4
				l1.8,0.2c0,0.2-0.2,0.3-0.5,0.3v3.6h2.8V640l1.8,0.2c0,0.2-0.1,0.3-0.5,0.4v4.7h2.9v-4.1l1.8,0.2c0,0.2-0.1,0.3-0.5,0.4v4.4
				c0,0.1-0.6,0.4-1.1,0.4H504v-0.8h-2.9v5.5h3.6V647L506.5,647.2z"/>
		</g>
	</g>
	<title>资源 1</title>
	<g>
		<g id="grid_20px">
			<path style="&st8;" d="M226,349.8c-0.7,0.4-1.6,0.5-2.3,0.6c0.9-0.5,1.5-1.4,1.9-2.2c-0.9,0.5-1.7,0.9-2.6,1
				c-0.7-0.9-1.9-1.4-3-1.2c-2.2,0-4.1,1.9-4.1,4.1c0,0.4,0,0.6,0.1,1c-3.5-0.2-6.5-1.9-8.6-4.4c-1.1,1.9-0.5,4.2,1.2,5.4
				c-0.6,0-1.2-0.1-1.9-0.5l0,0c0,2,1.4,3.6,3.3,4.1c-0.4,0.1-0.7,0.1-1.1,0.1c-0.2,0-0.5,0-0.7-0.1c0.5,1.7,2.1,2.8,3.8,2.8
				c-1.5,1.1-3.2,1.7-5.1,1.7c-0.4,0-0.6,0-1-0.1c1.9,1.2,4.1,2,6.4,2c6.4,0,11.6-5.1,11.6-11.5v-0.1c0-0.2,0-0.4,0-0.5
				C224.8,351.3,225.5,350.7,226,349.8"/>
		</g>
		<rect x="200" y="340" style="&st12;" width="32" height="32"/>
	</g>
	<g>
		<g id="首页_8_">
			<g id="icon_arrow">
				
					<g id="Group-7-Copy-6" transform="translate(19.000000, 18.000000) scale(-1, 1) translate(-19.000000, -18.000000) translate(13.000000, 12.000000)">
					
						<g id="Group-9" transform="translate(6.000000, 6.000000) rotate(-315.000000) translate(-6.000000, -6.000000) translate(2.000000, 2.000000)">
						<polygon id="Combined-Shape_4_" style="&st8;" points="544.6,538.2 544.6,546.2 542.6,546.2 542.6,540.2 536.6,540.2 
							536.6,538.2 						"/>
					</g>
				</g>
			</g>
		</g>
		<rect y="760" style="&st12;" width="36" height="36"/>
	</g>
	<g>
		<g id="首页_4_">
			<g id="icon_arrow_1_">
				
					<g id="Group-7-Copy-6_1_" transform="translate(19.000000, 18.000000) scale(-1, 1) translate(-19.000000, -18.000000) translate(13.000000, 12.000000)">
					
						<g id="Group-9_1_" transform="translate(6.000000, 6.000000) rotate(-315.000000) translate(-6.000000, -6.000000) translate(2.000000, 2.000000)">
						<polygon id="Combined-Shape" style="&st8;" points="483,599.8 483,591.8 485,591.8 485,597.8 491,597.8 491,599.8 						"/>
					</g>
				</g>
			</g>
		</g>
		<rect x="80" y="760" style="&st12;" width="36" height="36"/>
	</g>
	<path id="Page-1_2_" d="M63.3,711.8l7.9-7.9l-2-2l-7.9,7.9v2H63.3z M60,713v-3.8l9.2-9.2l3.8,3.8l-9.2,9.2H60z"/>
	<path id="Page-1_1_" style="&st8;" d="M3.3,711.8l7.9-7.9l-2-2l-7.9,7.9v2H3.3z M0,713v-3.8l9.2-9.2l3.8,3.8L3.8,713H0z"/>
	<g>
		<rect x="60" y="642.9" width="12.8" height="1.3"/>
		<polygon points="70.2,652.5 62.6,652.5 62.6,644.8 61.3,644.8 61.3,653.8 71.5,653.8 71.5,644.8 70.2,644.8 		"/>
		<rect x="63.8" y="640" width="5.1" height="1.3"/>
	</g>
	<g>
		<rect y="642.9" style="&st8;" width="12.8" height="1.3"/>
		<polygon style="&st8;" points="10.2,652.5 2.6,652.5 2.6,644.8 1.3,644.8 1.3,653.8 11.5,653.8 11.5,644.8 10.2,644.8 		"/>
		<rect x="3.8" y="640" style="&st8;" width="5.1" height="1.3"/>
	</g>
	<g>
		<path d="M713.3,0.1c0,0,1.1,0.9,1.8,1.5c0,0.2-0.2,0.3-0.4,0.3h-11.3v3.6c0,3-0.1,7-3.2,9.7L700,15c1.5-2.9,1.6-6.5,1.6-9.6v-5
			l2.1,0.9h8.7L713.3,0.1z M709.9,9.2V13c0,1.2-0.3,2-2.4,2.2c0-0.6-0.1-1-0.3-1.2c-0.2-0.2-0.6-0.4-1.4-0.6v-0.2
			c0,0,1.5,0.1,1.9,0.1c0.3,0,0.3-0.1,0.3-0.3V9.2h-1.6v0.4c0,0.1-0.4,0.4-0.9,0.5l2,1c-0.1,0.1-0.2,0.2-0.6,0.2
			c-1,1.2-2.6,2.5-4.6,3.2l-0.1-0.2c1.4-1.1,2.6-2.9,3.1-4.3c-0.2,0-0.3,0-0.5,0h-0.3V3.3l1.9,0.8h0.9c0.1-0.6,0.2-1.5,0.2-2.3
			l2.4,0.5c-0.1,0.2-0.3,0.4-0.6,0.4c-0.4,0.5-1,1-1.5,1.3h3.2l0.9-0.9l1.8,1.4c-0.1,0.1-0.3,0.3-0.7,0.4v4.4c0,0.1-0.9,0.5-1.5,0.5
			h-0.3V9.2H709.9z M706.5,4.5v1.8h4.9V4.5H706.5z M711.4,8.7V6.8h-4.9v1.9H711.4z M710.7,10.4c5.4,1,4.2,4.8,2.3,3.6
			c-0.4-1.2-1.5-2.6-2.4-3.5L710.7,10.4z"/>
		<path d="M724.4,12.6c0.5,0.2,0.6,0.4,0.6,0.7c0,0.8-0.7,1-3.5,1h-1.7c-1.6,0-2.1-0.3-2.1-1.6V5.9c-0.6,0.5-1.2,0.9-1.8,1.3
			l-0.1-0.2c1.8-2,3.2-4.9,3.9-7.1l2.3,1c-0.1,0.2-0.2,0.3-0.6,0.3c4.9,1.3,3.7,4.8,1.9,3.7c-0.3-1.1-1.2-2.3-2.1-3.3
			c-0.6,1.1-1.4,2.2-2.4,3.3l1,0.4h2.1l0.9-0.8l1.6,1.3c-0.1,0.1-0.3,0.2-0.6,0.3c0,3-0.1,4-0.7,4.4c-0.4,0.3-0.9,0.4-1.7,0.4
			c0-0.5,0-0.8-0.2-1.1c-0.2-0.2-0.5-0.4-1-0.5V9.2c0.4,0,1,0.1,1.2,0.1c0.2,0,0.3,0,0.4-0.1C722,9,722,8,722,5.9h-2.5v6.5
			c0,0.3,0.1,0.4,0.7,0.4h1.5c0.6,0,1.1,0,1.3,0c0.2,0,0.3,0,0.4-0.2c0.2-0.3,0.4-1.2,0.7-2.2h0.2L724.4,12.6z M727.2,10.9
			c0,0.1-0.8,0.5-1.4,0.5h-0.3V2l2.2,0.2c0,0.2-0.1,0.4-0.5,0.4V10.9z M730.9,0.3c0,0.2-0.2,0.4-0.6,0.4V13c0,1.2-0.3,2-2.4,2.2
			c0-0.6-0.1-1-0.4-1.3c-0.3-0.3-0.6-0.5-1.5-0.6V13c0,0,1.7,0.1,2.1,0.1c0.3,0,0.4-0.1,0.4-0.3V0.1L730.9,0.3z"/>
		<path d="M744,5c0.1-0.6,0.3-1.4,0.4-2h-2v2.1c0,0.4,0,0.4,0.4,0.4h1.8h0.5c0.1,0,0.3,0,0.5,0h0.1l0.1,0c0.6,0.2,0.7,0.3,0.7,0.6
			c0,0.7-0.4,1-2,1h-1.3c0.2,0.2,1.1,0.9,1.6,1.4c0,0.2-0.2,0.3-0.4,0.3h-3.8v5.1h3.2l1-1.4c0,0,1.2,0.9,1.8,1.6
			c0,0.2-0.2,0.3-0.4,0.3h-13.1l-0.1-0.5h5.7V8.8h-3.9l-0.1-0.5h7.6l0.9-1.2h-0.5c-1.9,0-2-0.2-2-2V3h-5.8c0.2,1.2-0.2,2.1-0.8,2.4
			c-0.5,0.4-1.3,0.2-1.5-0.4c-0.2-0.6,0.2-1,0.7-1.3c0.6-0.4,1.1-1.2,1-2.2l0.2,0c0.2,0.4,0.3,0.7,0.4,1.1h4.6
			c-0.2-0.1-0.3-0.1-0.5-0.3c0-0.8-0.4-1.6-0.8-2.2l0.1-0.1c3.3,0.3,3,2.1,2,2.5h4.2l1-1.1l1.8,1.7c-0.1,0.1-0.3,0.2-0.6,0.2
			c-0.6,0.5-1.6,1.3-2.4,1.7L744,5z M732.8,7.7c2.7-1.2,4-2.9,4.4-4.8l2.4,1.2c-0.1,0.2-0.3,0.3-0.8,0.3c-1.2,1.7-2.9,3-6,3.4
			L732.8,7.7z"/>
		<path d="M749.2,2.1l2.5,0.2c0,0.3-0.2,0.4-0.7,0.5v11.7c0,0.2-0.8,0.6-1.5,0.6h-0.3V2.1z M750.5,0c4.8,0.7,3.5,4.2,1.7,3.1
			c-0.3-1-1.1-2.2-1.8-3L750.5,0z M758.6,11.5c0,0.2-0.8,0.6-1.4,0.6h-0.3V11h-2.7V12c0,0.1-0.5,0.5-1.4,0.5h-0.3V3.8l1.8,0.7h2.5
			l0.8-0.8l1.6,1.2c-0.1,0.1-0.2,0.2-0.5,0.2V11.5z M754.2,4.9v2.5h2.7V4.9H754.2z M756.9,10.6V7.9h-2.7v2.7H756.9z M762.7,1.9
			c-0.1,0.1-0.3,0.3-0.7,0.3v10.6c0,1.3-0.3,2-2.4,2.2c0-0.6-0.2-1-0.4-1.3c-0.3-0.3-0.7-0.5-1.6-0.6v-0.2c0,0,1.9,0.1,2.2,0.1
			c0.3,0,0.4-0.1,0.4-0.4V2h-5.8l-0.1-0.4h5.8l0.8-1L762.7,1.9z"/>
	</g>
	<g id="icon_mroe">
		<polyline id="Path-3" style="&st34;" points="1,801 4,804 1,807.1 		"/>
	</g>
	<g>
		<g>
			<rect x="30.6" y="861.5" style="&st8;" width="3" height="17"/>
			<path style="&st8;" d="M51.2,869.7c-0.6-0.3-1.3-0.7-2.1-0.9c-1.1-0.4-1.9-0.7-2.5-1.1c-0.6-0.4-0.9-0.9-0.9-1.5
				c0-0.6,0.1-1.1,0.6-1.5c0.4-0.4,1.1-0.6,1.9-0.7c1.1,0,2.4,0.3,3.8,1l1-2.3c-0.8-0.4-1.6-0.7-2.4-0.9s-1.5-0.3-2.7-0.3
				c-1.5,0.1-2.6,0.6-3.5,1.5c-0.9,0.9-1.3,2.1-1.2,3.4c0,0.9,0.3,1.7,0.7,2.3c0.5,0.6,1,1.1,1.6,1.4c0.6,0.3,1.4,0.6,2.3,1
				c0.9,0.3,1.6,0.7,2.1,1.1c0.5,0.4,0.9,0.9,0.9,1.6c0,0.8-0.3,1.4-0.9,1.8c-0.6,0.4-1.1,0.5-1.9,0.5c-0.6,0-1.4-0.2-2.1-0.4
				c-0.7-0.3-1.4-0.6-2-1l-1.2,2.3c0.7,0.6,1.6,1,2.5,1.2c0.9,0.3,1.9,0.4,2.9,0.4c1.1,0,2.1-0.3,2.9-0.7c0.8-0.5,1.3-1,1.7-1.8
				c0.4-0.7,0.6-1.5,0.6-2.4c0-1-0.2-1.8-0.6-2.4C52.3,870.5,51.8,870,51.2,869.7z"/>
			<path style="&st8;" d="M72.6,872.3c0,0.7-0.2,1.2-0.5,1.8c-0.3,0.5-0.8,1-1.3,1.3c-0.6,0.3-1.2,0.5-1.9,0.5
				c-0.7,0-1.3-0.2-1.8-0.5c-0.6-0.3-1-0.8-1.3-1.3c-0.3-0.5-0.5-1.1-0.5-1.8v-10.6h-2.5v10.6c0,1.2,0.3,2.2,0.8,3.1
				c0.5,0.9,1.3,1.6,2.2,2.1c0.9,0.5,2,0.8,3.1,0.8c1.1,0,2.2-0.3,3.1-0.8c1-0.5,1.7-1.2,2.3-2.1c0.5-0.9,0.8-2,0.8-3.1v-10.6h-2.5
				V872.3z"/>
			<polygon style="&st8;" points="99.4,863.7 97.4,861.5 92.1,867 94.1,869.2 			"/>
			<polygon style="&st8;" points="83.4,876 85.4,878.2 90.7,872.7 88.7,870.5 			"/>
			<polygon style="&st8;" points="92.1,872.7 97.4,878.2 99.4,876 94.1,870.5 			"/>
			<polygon style="&st8;" points="90.7,867 85.4,861.5 83.4,863.7 88.7,869.2 			"/>
		</g>
		<g>
			<rect y="840" style="&st12;" width="130" height="60"/>
		</g>
	</g>
	<g>
		<g>
			<polygon style="&st8;" points="246.1,864.7 245.6,867.3 242.5,867.3 243.7,869 245.3,869 244,876.7 246.7,876.7 248.1,869 
				251.5,869 			"/>
			<polygon style="&st8;" points="191.2,863 178.8,863 178.5,865 183.3,865 181.3,876.7 184,876.7 186,865 190.9,865 			"/>
			<path style="&st8;" d="M193.5,867.2c-3.5,0-5.8,2.2-6.2,4.8c-0.5,2.9,1.3,5,4.8,5c1.6,0,3.1-0.3,4.3-1l0.4-2.2
				c-1.2,0.9-2.7,1.3-3.9,1.3c-1.8,0-3.2-0.7-3-2.5h7.3c0.1-0.2,0.2-0.6,0.3-1C197.8,869.8,197.1,867.2,193.5,867.2z M195,871.2
				h-4.8c0.3-1,1.2-2.3,2.9-2.3C194.9,868.8,195.1,870.2,195,871.2z"/>
			<path style="&st8;" d="M205.7,867.2c-1.7,0-3,0.7-3.6,1.5H202l-2.4-1.5c-0.1,0.8-0.2,1.9-0.4,3l-1.1,6.6h2.8l1-5.5
				c0-0.3,0.1-0.6,0.3-0.8c0.4-0.7,1.3-1.4,2.4-1.4c1.5,0,1.9,1,1.7,2.4l-0.9,5.3h2.8l1-5.6C209.5,868.2,207.6,867.2,205.7,867.2z"
				/>
			<path style="&st8;" d="M238.9,867.2c-1.7,0-3,0.7-3.6,1.5h-0.1l-2.4-1.5c-0.1,0.8-0.2,1.9-0.4,3l-1.1,6.6h2.8l1-5.5
				c0-0.3,0.1-0.6,0.3-0.8c0.4-0.7,1.3-1.4,2.4-1.4c1.5,0,1.9,1,1.7,2.4l-0.9,5.3h2.8l1-5.6C242.6,868.2,240.8,867.2,238.9,867.2z"
				/>
			<path style="&st8;" d="M226.7,867.2c-3.5,0-5.8,2.2-6.2,4.8c-0.5,2.9,1.3,5,4.8,5c1.6,0,3.1-0.3,4.3-1l0.4-2.2
				c-1.2,0.9-2.7,1.3-3.9,1.3c-1.8,0-3.2-0.7-3-2.5h7.3c0.1-0.2,0.2-0.6,0.3-1C231,869.8,230.2,867.2,226.7,867.2z M228.1,871.2
				h-4.8c0.3-1,1.2-2.3,2.9-2.3C228.1,868.8,228.3,870.2,228.1,871.2z"/>
			<path style="&st8;" d="M210.1,872c-0.5,2.9,1.5,5,4.9,5c1.4,0,3-0.4,3.6-0.6l0.4-2.5c-1,1-2.3,1.3-3.2,1.3c-1.9,0-3.3-1.1-3-3
				c0.3-1.7,1.9-3.1,4-3.1c0.9,0,2,0.3,2.8,1.3l0.4-2.6c-0.6-0.2-1.5-0.6-3-0.6C213.3,867.2,210.6,869.2,210.1,872z"/>
		</g>
		<rect x="150" y="840" style="&st12;" width="130" height="60"/>
	</g>
	<g>
		<g>
			<path style="&st8;" d="M202.7,943h-9.8l-2.4-1v5.6c0,3.5-0.1,7.4-1.8,10.6l0.2,0.1c3.4-3,3.6-7.5,3.6-10.7v-4.2h12.7
				c0.3,0,0.5-0.1,0.5-0.3c-0.8-0.7-2.1-1.5-2.1-1.5L202.7,943z"/>
			<path style="&st8;" d="M200.8,953l-0.1,0.1c1,1,2.2,2.6,2.7,3.9C205.6,958.5,207,954.2,200.8,953z"/>
			<path style="&st8;" d="M196.4,954.3c0,0,0.2-0.2,0.4-0.5l-2-1c-0.6,1.4-1.9,3.4-3.5,4.7l0.1,0.2
				C193.5,957,195.3,955.7,196.4,954.3z"/>
			<path style="&st8;" d="M201.7,952.5l2.1-0.6v-4.7l0.6-0.8l-2.7-1.3v1h-0.2H198c0.5-0.3,1.1-0.9,1.5-1.4c0.1-0.1,0.3-0.3,0.5-0.6
				l-2.5-0.5c0,0.9-0.1,1.9-0.2,2.5h-1.1l-2.1-0.9v7.7l2-0.6v-0.5h1.8v4.2c0,0.2-0.1,0.3-0.4,0.3c-0.4,0-2.1-0.1-2.1-0.1v0.2
				c0.9,0.1,1.3,0.3,1.5,0.6c0.2,0.3,0.3,0.8,0.4,1.4c2.4-0.2,2.7-1,2.7-2.4v-4.2h1.7V952.5z M196.1,951.3v-0.8V949v-0.4v-1.1v-1.1
				h5.6v4.9H196.1z"/>
			<polygon style="&st8;" points="196.6,950.2 201.2,948.7 201.2,947.5 196.6,949.2 			"/>
			<path style="&st8;" d="M220.7,955.8c0,0.2-0.1,0.3-0.4,0.3c-0.4,0-2.2-0.1-2.2-0.1v0.2c0.9,0.1,1.2,0.3,1.5,0.6
				c0.3,0.3,0.4,0.8,0.4,1.4c2.2-0.2,2.5-1,2.5-2.4v-12.1l0.6-0.5l-2.4-1.3V955.8z"/>
			<polygon style="&st8;" points="219.3,945 219.8,944.3 217.5,943.2 217.5,954.5 219.3,954 			"/>
			<polygon style="&st8;" points="213.7,948.5 210.4,949.7 210.4,950.5 213.7,949.3 			"/>
			<path style="&st8;" d="M212.2,942.8c0-0.1,0.1-0.1,0.1-0.1h0.1c1.4,1,2.2,2.3,2.5,3.3c1.6,1.2,3.7-2.3-2.2-3.5l-0.2-0.1l0,0
				c0-0.2,0.1-0.3,0.2-0.4l-2.4-0.5c-0.6,1.9-2.2,4.6-4.1,6.3l0.1,0.2c0.6-0.3,1.2-0.7,1.8-1.1v2.7c0,2.4-0.1,5.4-1.8,7.9l0.2,0.2
				c1.1-0.8,1.9-1.7,2.4-2.6v3.1l1.9-0.5v-0.9h3.2v1.2l2-0.6v-3.2l0.6-0.6l-2.4-1.2v0.8H214h-2.8l-1.2-0.5c0.1-0.3,0.1-0.8,0.2-1.1
				h3.9v0.6l1.9-0.6v-3.4l0.6-0.6l-0.6-0.3l-1.9-1v1h-0.4h-3.3l-1.8-0.6c0.4-0.3,0.7-0.6,1.1-0.9v0.1h4.4c0.2,0,0.4-0.1,0.5-0.3
				c-0.6-0.6-1.6-1.2-1.6-1.2l-0.9,1.2h-2.2C210.9,944.8,211.6,943.8,212.2,942.8z M210.9,953.5h3.2v3h-3.2V953.5z M210.1,949.7
				v-0.3v-1.7h3.8v3.6h-3.8H210C210.1,950.8,210.1,950.2,210.1,949.7z"/>
			<path style="&st8;" d="M234.9,941.5l-0.1,0.1c0.4,0.6,0.9,1.5,0.9,2.3C237.5,945.2,239.5,941.8,234.9,941.5z"/>
			<polygon style="&st8;" points="227.6,950.5 229.3,950 229.3,949.5 227.6,950 			"/>
			<path style="&st8;" d="M238.5,952.5h-0.2h-3.5v-2h3.1v0.9l1.9-0.5v-3.4l0.5-0.6l-1-0.5c0.4-0.2,0.8-0.6,1.2-0.9
				c0.1-0.1,0.5-0.5,0.8-0.8l-1.3-1.5l-1,1h-5.4c-0.1-0.3-0.2-0.6-0.4-0.9h-0.3c0.1,0.6-0.2,1.3-0.6,1.5c-0.2,0.1-0.3,0.2-0.4,0.3
				c0.4-0.7-0.1-1.9-2.8-2.6c0-0.1,0.1-0.3,0.2-0.5l-2.5-0.5c-0.2,1.7-1.2,4.7-2.3,6.4l0.2,0.1c0.4-0.2,0.7-0.5,1.1-0.9v8.2
				c0,0.4-0.1,0.5-0.6,0.9l0.9,1.8l1.1-0.8c1.1-0.8,2.1-1.5,2.8-2.1c0.2,0.5,0.4,1.1,0.5,1.6c1.7,1.4,3.4-2.1-1.3-3.5l-0.2,0.1
				c0.3,0.4,0.5,0.9,0.8,1.4c-0.8,0.2-1.5,0.5-2.1,0.7v-3.1h1.9v0.6l1.9-0.5v-3.7l0.5-0.6l-2.4-1.2v0.9h-0.1h-1.8l-1.8-0.8
				c0.4-0.3,0.6-0.6,0.9-0.9l0.1,0.1h3.7c0.2,0,0.4-0.1,0.5-0.3c-0.6-0.6-1.6-1.2-1.6-1.2l-0.9,1.1h-1.5c0.8-1,1.5-2,2-3
				c0.7,0.8,1.2,1.9,1.4,2.6c0.5,0.4,1,0.3,1.4,0.1c-0.2,0.1-0.3,0.4-0.2,0.7c0.2,0.5,0.9,0.7,1.4,0.5v11.7l1.9-0.5v-0.1v-1h3.7v1.3
				l1.9-0.5v-4.2l0.5-0.6l-2.4-1.2v0.9H238.5z M227.5,948h1.9v3.9h-1.9V948z M237.9,950.2h-3.1v-3h3.1V950.2z M233.6,944.7h5.5
				c0,0.5-0.1,1.2-0.1,1.6l-1.1-0.5v1.2h-0.2h-0.2h-2.7l-1.4-0.7c0.1-0.3,0.3-0.7,0.3-1.2c0-0.1,0-0.1,0-0.2
				C233.7,944.8,233.6,944.7,233.6,944.7z M238.4,956.3h-3.7V953h3.7V956.3z"/>
		</g>
		<rect x="150" y="920" style="&st12;" width="130" height="60"/>
		<rect x="150" y="920" style="&st12;" width="130" height="60"/>
	</g>
	<g>
		<g>
			<path style="&st8;" d="M70.1,946H68c-0.1,0-0.1,0-0.1,0.1v0.6c-0.7-0.6-1.5-1-2.5-1c-2.5,0-4.4,2-4.4,4.7c0,2.7,1.9,4.7,4.4,4.7
				c1,0,1.8-0.3,2.5-0.9v0.6c0,0.1,0,0.1,0.1,0.1h2.1c0.1,0,0.1,0,0.1-0.1l0,0L70.1,946C70.2,946,70.2,946,70.1,946z M65.5,953
				c-1.4,0-2.4-1.1-2.4-2.5c0-1.5,1-2.5,2.4-2.5s2.4,1.1,2.4,2.5C67.8,951.9,66.8,953,65.5,953z"/>
			<ellipse style="&st8;" cx="88.2" cy="943.9" rx="1.5" ry="1.5"/>
			<path style="&st8;" d="M52.7,948.5c0-0.9-0.2-1.8-0.5-2.6c-0.3-0.8-0.8-1.5-1.4-2.1c-0.6-0.6-1.3-1.1-2.1-1.4
				c-0.7-0.2-1.6-0.4-2.5-0.4c-0.9,0-1.8,0.2-2.6,0.5s-1.5,0.8-2.1,1.4c-0.6,0.6-1,1.3-1.4,2.1c-0.3,0.8-0.5,1.7-0.5,2.6
				c0,0.9,0.2,1.8,0.5,2.6s0.8,1.5,1.4,2.1c0.6,0.6,1.3,1.1,2.1,1.4s1.7,0.5,2.6,0.5c0.9,0,1.8-0.2,2.6-0.5c0.2-0.1,0.4-0.2,0.6-0.3
				l0.4,0.4c0.1,0.1,0.1,0.1,0.2,0.1h2.4c0.1,0,0.1,0,0.1-0.1L51,953c0.5-0.5,0.9-1.2,1.2-1.9C52.5,950.3,52.7,949.4,52.7,948.5z
				 M49.8,950.2L49.8,950.2c-0.1,0.3-0.3,0.6-0.4,0.9l-0.9-1.1c-0.1-0.1-0.1-0.1-0.2-0.1H46c-0.1,0-0.1,0-0.1,0.1l2,2.5
				c0,0,0,0-0.1,0c-0.5,0.2-1,0.3-1.7,0.3c-0.6,0-1.2-0.1-1.7-0.3s-0.9-0.5-1.3-0.9c-0.4-0.4-0.6-0.9-0.8-1.4
				c-0.2-0.5-0.3-1.1-0.3-1.7s0.1-1.2,0.3-1.7s0.5-1,0.8-1.4c0.5-0.4,0.9-0.7,1.4-0.9s1-0.3,1.7-0.3c0.6,0,1.2,0.1,1.7,0.3
				s0.9,0.5,1.3,0.9c0.4,0.4,0.6,0.8,0.8,1.4c0.2,0.5,0.3,1.1,0.3,1.7C50.2,949.1,50,949.7,49.8,950.2z"/>
			<path style="&st8;" d="M38.5,948.5c0-0.9-0.2-1.8-0.5-2.6c-0.3-0.8-0.8-1.5-1.4-2.1c-0.6-0.6-1.3-1.1-2.1-1.4
				c-0.7-0.2-1.6-0.4-2.5-0.4c-0.9,0-1.8,0.2-2.5,0.5c-0.8,0.3-1.5,0.8-2.1,1.4c-0.6,0.6-1.1,1.3-1.4,2.1c-0.3,0.8-0.5,1.6-0.5,2.5
				s0.2,1.8,0.5,2.6c0.3,0.8,0.8,1.5,1.4,2.1c0.6,0.6,1.3,1.1,2.1,1.4c0.8,0.3,1.7,0.5,2.6,0.5c0.9,0,1.8-0.2,2.6-0.5
				c0.2-0.1,0.4-0.2,0.6-0.3l0.4,0.4c0.1,0.1,0.1,0.1,0.2,0.1h2.4c0.1,0,0.1,0,0.1-0.1l-1.6-1.7c0.5-0.5,0.9-1.2,1.2-1.9
				C38.3,950.3,38.5,949.4,38.5,948.5z M35.8,950.2L35.8,950.2c-0.1,0.3-0.3,0.6-0.4,0.9l-0.9-1.1c-0.1-0.1-0.2-0.1-0.3-0.1h-2.4
				c-0.1,0-0.1,0-0.1,0.1l2,2.5c0,0,0,0-0.1,0c-0.5,0.2-1,0.3-1.7,0.3c-0.6,0-1.2-0.1-1.7-0.3c-0.3-0.2-0.8-0.5-1.1-0.9
				c-0.4-0.4-0.6-0.9-0.8-1.4s-0.3-1.1-0.3-1.7s0.1-1.2,0.3-1.7s0.5-1,0.8-1.4c0.3-0.4,0.8-0.7,1.3-0.9s1-0.3,1.7-0.3
				c0.7,0,1.2,0.1,1.7,0.3c0.4,0.2,0.8,0.5,1.1,0.9c0.4,0.4,0.6,0.8,0.8,1.4c0.2,0.5,0.3,1.1,0.3,1.7S36,949.7,35.8,950.2z"/>
			<path style="&st8;" d="M82.1,945.8c-0.8,0-1.4,0.2-2,0.5c-0.4,0.2-0.7,0.5-1,0.8c-0.2-0.4-0.5-0.6-0.9-0.9
				c-0.5-0.3-1-0.4-1.7-0.4c-0.4,0-1,0-1.6,0.4c-0.4,0.2-0.7,0.4-0.8,0.6v-0.6c0-0.1,0-0.1-0.1-0.1h-1.9c-0.1,0-0.1,0-0.1,0.1v8.7
				c0,0.1,0,0.1,0.1,0.1h2c0.1,0,0.1,0,0.1-0.1v-4.8c0-0.7,0-2.2,1.7-2.2c1.7,0,1.7,1.3,1.7,2v4.9c0,0.1,0,0.1,0.1,0.1h2
				c0.1,0,0.1,0,0.1-0.1V950c0-0.7,0.1-2.2,1.7-2.2c1.7,0,1.7,1.3,1.7,2v4.9c0,0.1,0,0.1,0.1,0.1h2c0.1,0,0.1,0,0.1-0.1v-5.1
				c0-1.1-0.3-2.1-0.8-2.8C84,946.1,83.2,945.8,82.1,945.8z"/>
			<path style="&st8;" d="M89.2,946.4h-2c-0.1,0-0.1,0-0.1,0.1v8.2c0,0.1,0,0.1,0.1,0.1h2c0.1,0,0.1,0,0.1-0.1L89.2,946.4
				C89.5,946.4,89.4,946.4,89.2,946.4z"/>
			<path style="&st8;" d="M94.8,952.7h-0.7c-0.3,0-0.5-0.1-0.5-0.4v-9.7c0-0.1,0-0.1-0.1-0.1h-2c-0.1,0-0.1,0-0.1,0.1v10.1
				c0,1.5,0.6,2.1,2,2.1h1.5c0.1,0,0.1,0,0.1-0.1v-1.9C95,952.7,94.9,952.7,94.8,952.7z"/>
			<path style="&st8;" d="M104.5,946h-2.2c-0.1,0-0.1,0-0.2,0.1l-2.2,5.5l-2.4-5.5c0-0.1-0.1-0.1-0.2-0.1h-2.3c-0.1,0-0.1,0-0.1,0.1
				l3.7,8.1l-0.7,1.5c-0.1,0.2-0.3,0.3-0.7,0.3h-1.3c-0.1,0-0.1,0-0.1,0.1v1.8c0,0.1,0,0.1,0.1,0.1h1.7c1.5,0,1.9-0.5,2.3-1.4
				L104.5,946C104.6,946,104.6,946,104.5,946z"/>
			<path style="&st8;" d="M58.8,942.1c-1.4-0.1-3.1,0.4-3.1,2.8v1.1h-1.4c-0.1,0-0.1,0-0.1,0.1v1.7c0,0.1,0,0.1,0.1,0.1h1.4v6.8
				c0,0.1,0,0.1,0.1,0.1h2c0.1,0,0.1,0,0.1-0.1V948H60c0.1,0,0.1,0,0.1-0.1v-1.8c0-0.1,0-0.1-0.1-0.1h-2.2v-0.8c0-0.8,0.3-1,0.8-1
				c0.4,0,1,0.2,1.3,0.3c0.1,0,0.1,0,0.2-0.1l0.7-1.6c0-0.1,0-0.1-0.1-0.2C60.5,942.6,59.8,942.2,58.8,942.1z"/>
		</g>
		<rect y="920" style="&st12;" width="130" height="60"/>
	</g>
	<g id="图层_2_4_">
		<g id="图层_1-2">
			<g id="图层_2-2">
				<g id="作品详情页_1_">
					<path style="&st28;" d="M75.7,519.8l-31.9-18.7c-2.6-1.4-5.8-1.4-8.4-0.1L4.9,518.7c-2.5,1.6-4.7,4.3-4.9,7.2v36.5
						c0.1,3,1.6,5.7,4.1,7.4l31.3,18.7c2.6,1.4,5.8,1.4,8.4,0.1l31.9-17.8c2.5-1.6,4.1-4.3,4.3-7.2v-36.4
						C79.8,524.2,78.2,521.4,75.7,519.8z M78.4,563.6c-0.2,2.4-1.5,4.6-3.5,5.9l-31.9,17.7c-2.2,1-4.7,1-6.8-0.1L4.9,568.4
						c-2-1.4-3.2-3.6-3.3-6V526c0.2-2.4,2-4.6,4.1-5.9l30.6-17.8c2.2-1,4.7-1,6.8,0.1l31.8,18.7c2,1.3,3.3,3.6,3.5,6L78.4,563.6z"/>
					<path style="&st28;" d="M53.8,531.9c-4.3-2.4-9.6-1.9-13.3,1.3c-2.2-2-5.1-3.1-8.1-3c-3.2,0-6.3,1.4-8.5,3.8
						c-4.2,4.7-4,11.9,0.5,16.3l14.2,14.6l1.5,1.4l16.1-15.8c4.6-4.5,4.7-11.9,0.2-16.6C55.7,533.1,54.8,532.5,53.8,531.9z"/>
					<path style="&st8;" d="M54.8,549.1l-14.7,14.4L26,548.9c-3.7-3.7-3.9-9.6-0.5-13.5c1.8-2,4.4-3.1,7-3.2h0.1c2.6,0,5.1,1.1,7,3
						l0.9,0.9l0.7-0.8l0.5-0.5c3.1-2.7,7.5-3.2,11.1-1.2l0,0c2.7,1.5,4.5,4.2,4.9,7.3C58.1,543.9,57,546.9,54.8,549.1z"/>
				</g>
			</g>
		</g>
	</g>
	<g id="图层_2_2_">
		<g id="图层_1-2_1_">
			<path style="&st28;" d="M215.7,519.8l-31.9-18.7c-2.6-1.4-5.8-1.4-8.4-0.1l-30.5,17.8c-2.5,1.6-4.7,4.3-4.9,7.2v36.5
				c0.1,3,1.6,5.7,4.1,7.4l31.3,18.7c2.6,1.4,5.8,1.4,8.4,0.1l31.9-17.8c2.5-1.6,4.1-4.3,4.3-7.2v-36.4
				C219.8,524.2,218.2,521.4,215.7,519.8z M218.4,563.6c-0.2,2.4-1.5,4.6-3.5,5.9l-31.9,17.7c-2.2,1-4.7,1-6.8-0.1l-31.3-18.7
				c-2-1.4-3.2-3.6-3.3-6V526c0.2-2.4,2-4.6,4.1-5.9l30.6-17.8c2.2-1,4.7-1,6.8,0.1l31.8,18.7c2,1.3,3.3,3.6,3.5,6V563.6z"/>
			<path style="&st28;" d="M193.8,531.9c-4.3-2.4-9.6-1.9-13.3,1.3c-2.2-2-5.1-3.1-8.1-3c-3.2,0-6.3,1.4-8.5,3.8
				c-4.2,4.7-4,11.9,0.5,16.3l14.2,14.6l1.5,1.4l16.1-15.8c4.6-4.5,4.7-11.9,0.2-16.6C195.7,533.1,194.8,532.5,193.8,531.9z"/>
		</g>
	</g>
	<g id="图层_1-2_2_">
		<path style="&st28;" d="M315.7,519.8l-31.9-18.7c-2.6-1.4-5.8-1.4-8.4-0.1l-30.5,17.8c-2.5,1.6-4.7,4.3-4.9,7.2v36.5
			c0.1,3,1.6,5.7,4.1,7.4l31.3,18.7c2.6,1.4,5.8,1.4,8.4,0.1l31.9-17.8c2.5-1.6,4.1-4.3,4.3-7.2v-36.4
			C319.8,524.2,318.2,521.4,315.7,519.8z"/>
	</g>
	<g>
		<path d="M609.2,348.8c0,0-0.1,0.1-0.3,0.2l2.2,0.8c-0.1,0.2-0.3,0.3-0.6,0.3c-1.1,2.1-2.5,3.8-4.1,5l-0.2-0.1
			c0.9-1.4,1.9-3.7,2.5-5.8c-0.2,0.1-0.6,0.1-1,0.1h-0.3v-7.5c-0.1,0-0.1,0-0.2,0h-1v8.3l1.4-0.3l0,0.2c-0.4,0.2-0.9,0.5-1.5,0.8
			v3.8c0,0.1-0.5,0.5-1.4,0.5h-0.3v-3.5c-0.9,0.4-2,0.9-3.2,1.4c-0.1,0.2-0.3,0.4-0.4,0.4l-0.8-2.1c0.3,0,0.7-0.1,1.2-0.2v-9.3h-1.1
			l-0.1-0.5h4.8l0.9-1.2c0,0,0.9,0.7,1.5,1.2v-0.8l2,0.8h2.8l0.9-1l1.7,1.3c-0.1,0.1-0.3,0.3-0.6,0.3v6.6c0,0.1-0.6,0.5-1.6,0.5
			h-0.3v-1.2h-3.1V348.8z M604.5,341.7h-1.6v2.6h1.6V341.7z M604.5,344.8h-1.6v2.7h1.6V344.8z M602.9,350.7c0.5-0.1,1-0.2,1.6-0.3
			V348h-1.6V350.7z M609.2,341.7v5.6h3.1v-5.6H609.2z M611.6,349.2c5.2,2.8,3.6,6.9,1.9,5.3c-0.1-1.7-1.1-3.8-2-5.2L611.6,349.2z"/>
		<path d="M620.4,344.8c0,0.1-0.2,0.3-0.5,0.3v9.4c0,0.1-0.8,0.6-1.5,0.6H618v-8.4c-0.6,0.7-1.3,1.3-2,1.9l-0.2-0.1
			c1.3-2,2.7-5.2,3.4-8.3l2.7,0.8c-0.1,0.2-0.3,0.3-0.6,0.3c-0.5,1.2-1,2.3-1.6,3.3L620.4,344.8z M629.3,352.1c0,0,1.2,1,2,1.7
			c0,0.2-0.2,0.3-0.4,0.3h-10.5l-0.1-0.5h5.6c0.6-2.6,1.2-6.1,1.5-8.6l2.7,0.6c-0.1,0.2-0.2,0.4-0.6,0.4c-0.6,2.1-1.9,5.1-3.2,7.6
			h2.1L629.3,352.1z M620.6,343.9h7.4l1.1-1.4c0,0,1.2,0.9,1.9,1.6c0,0.2-0.2,0.3-0.4,0.3h-9.8L620.6,343.9z M621.9,345.2
			c5.1,4.9,2.3,9,1,6.9c0-1.8-0.2-4.7-1.2-6.8L621.9,345.2z M623.7,340c4.7,1.1,2.9,4.7,1.1,3.2c-0.1-1.1-0.7-2.3-1.2-3.1L623.7,340
			z"/>
	</g>
	<g>
		<path d="M653.8,341.6c-0.1,0.1-0.3,0.3-0.7,0.3v12.4c0,0.1-0.9,0.6-1.6,0.6h-0.3v-1.2h-9.4v0.6c0,0.2-0.7,0.7-1.5,0.7H640v-14.7
			l2,0.8h9.1l0.9-1L653.8,341.6z M651.3,353.2v-11.6h-9.4v11.6H651.3z M649.6,343.4c0,0,0.9,0.9,1.3,1.5c0,0.2-0.2,0.3-0.4,0.3h-2.2
			v5.6c0,1.2-0.3,1.8-2.4,1.9c0-0.5-0.1-0.8-0.3-1c-0.2-0.2-0.6-0.4-1.3-0.5v-0.2c0,0,1.6,0.1,1.9,0.1c0.2,0,0.3-0.1,0.3-0.3v-3.5
			c-1,1.6-2.4,2.9-4.1,3.9l-0.2-0.2c1.6-1.5,2.8-3.7,3.4-5.9h-3.1l-0.1-0.4h4.1V342l2.4,0.2c0,0.2-0.2,0.4-0.6,0.4v2.1h0.5
			L649.6,343.4z"/>
		<path d="M661.9,341.8c-0.1,0.2-0.3,0.2-0.7,0.2c-0.6,1-1.6,2.7-2.4,3.7c1.8,1.1,2.6,2.6,2.6,3.9c0,1.6-0.6,2.5-2.5,2.6
			c0-0.5-0.1-1.2-0.2-1.5c-0.1-0.2-0.4-0.3-0.8-0.4v-0.2h1c0.2,0,0.3,0,0.4-0.1c0.2-0.1,0.4-0.4,0.4-0.9c0-1.1-0.4-2.3-1.3-3.4
			c0.3-1,0.7-2.9,0.9-4.2h-1.6v12.9c0,0.1-0.5,0.6-1.4,0.6h-0.3v-14.6l1.9,0.8h1.3l1-0.9L661.9,341.8z M666,340.2
			c0,0.2-0.2,0.4-0.6,0.4c0,0.8,0,1.6,0,2.4c0.4,4.4,1.6,7.8,5,9.8l0,0.2c-0.8,0.2-1.4,0.8-1.6,1.8c-2.3-2-3.2-5.5-3.5-9.4
			c-0.4,3.7-1.6,7-6.2,9.5l-0.2-0.2c4.9-4,4.7-9.1,4.7-14.8L666,340.2z"/>
	</g>
</g>
</svg>
